<mxfile host="app.diagrams.net" agent="Mozilla/5.0 (Windows NT 10.0; Win64; x64) AppleWebKit/537.36 (KHTML, like Gecko) Chrome/131.0.0.0 Safari/537.36" version="24.8.6">
  <diagram name="Page-1" id="AVgAMHDZMG5hntUTWDAL">
    <mxGraphModel dx="2610" dy="2036" grid="1" gridSize="10" guides="1" tooltips="1" connect="1" arrows="1" fold="1" page="1" pageScale="1" pageWidth="850" pageHeight="1100" math="0" shadow="0">
      <root>
        <mxCell id="0" />
        <mxCell id="1" parent="0" />
        <mxCell id="xVaTdNUlve_QaKW05wNs-2" value="&lt;font style=&quot;font-size: 36px;&quot;&gt;&lt;b style=&quot;&quot;&gt;&lt;br&gt;Automated Pipeline for Karachi Weather Data Transformation&lt;br&gt;&lt;/b&gt;&lt;/font&gt;" style="rounded=1;whiteSpace=wrap;html=1;" vertex="1" parent="1">
          <mxGeometry x="-330" y="-30" width="1130" height="140" as="geometry" />
        </mxCell>
        <mxCell id="xVaTdNUlve_QaKW05wNs-4" value="" style="shape=image;imageAspect=0;aspect=fixed;verticalLabelPosition=bottom;verticalAlign=top;image=data:image/png,iVBORw0KGgoAAAANSUhEUgAAAOEAAADhCAMAAAAJbSJIAAAAyVBMVEX////pbUlGRkhEREY6Ojw9PT84ODrobUg0NDZAQEL64938/PzpclDobEroakju7u7oZUEwMDLX19j42tLR0dLmVCnf39+lpaZ0dHWysrL0x7ssLC+NjY7o6Oj09PTBwcGAgIKWlpXyqJXkSBpjY2Sbm5xQUFLJycpZWVu7u7yqqqttbW/99/XoYj0mJil8fH3sf2L1wLL2zMIbGx7tj3Xse1rtiGvwl4HxsqD43dfmXDLwn4rnUiTyua767OfxqpnjPgAAAAAPDxTiMjS6AAANFUlEQVR4nO2aDXuaShOGkV0QQgAxiBpQscfPKJrEtOlr2/Sc8/9/1PvMLvjVmJik16X27N2riRhZ5tmZnZkFNU2hUCgUCoVCoVAoFAqFQqFQKBQKhUKhUCgUCoVCoVAoFAqFQqFQKBQKhUKhUGzhHNuA38v04v7Tw+3nz7dfHr/+78IhfX+Uwqtvt9kyqwiyLCs9fH06tkm/CeGmp59ZLfPKJdctl0ug7JYry9rtvfij45y3K8n6q8ulB3FQRvrK8kXZy5bfpqvPnDNPX75XXA+qSluUvZK7XP6Ynr/AOy+DHg//dhS6Hqg9XJy5xKfHJXz1jEByqYtfWeVOhOpZqnS06afLircbnjt43u39+RaOx9or8oQvK9nVsQ19L08Vr/RLhnkmWrNvx7b0HVDQTW+RQ73yqwrLpezHse19M7SunMesKIGvBap3nnF6l/2SP/dKzG7PsId7KlVK3gEOLMml+OnY9r4RFIoHFPpDFaJcLu+PbfNb+ZkdtgYlkFg5szh9ujx4EVKUep67/Hpsm9/Gj+z1Wr9W6KJ/87LpOTU2tAoPV4hwLpfd2vU5KbxyK4fry8kej2314Tiohb9uJl714+U55ZqHyluCVOIuz6ixmdKmyX2jD73l2XSnjna/LLlv9WEZS/fYlh/OfU3s69/oQy87tt2Hc11z4ZM3K6wd2+7Duau9Oc/QjHyfHtvwg7mrvXkZAvesFL5dH/h+PgVRKHzrOnS9s/Ch7Cyv3+HD88k09Njsnp5TvFWiW7nUpoJjS3gJR9wGvv188A2MDR+igN5KPp2wRgrST7WKJ+t9WfzbK4nYPPRcerjoeZXaiW+GyYF0l1Q8q/Be6Gy87dYOZ0jNbvbttDeKj0uvAAI9d8/dmrK3j9Ly57E1vMzFl5IL4CBEHTlyT6Ailp+l5D2cdl1EsrkouKf7+nsELh+vLvZw2jG6zUXF27OPqrjHtu3jiIczYl09q/CL9stj0fN7iuhMv2Z76oXrLa9W38FwBPLVxsHJ41z/fEQ28WThK5c3OlWUvlLl8tsneSf/6pPgTvg0PziLe/xflxmVfjcXhp9usSumb9ZgS58t7yDqalkT/P1V3P+QB3+deNEnZ0wv6Zapl/+n2r9RN6hO4mfly5R6oEyw/Dyl5+KV/ODUAxXt6eeKqIllqnFl+sKQ666SDr1A5cseIOpnTX4XbHmLg2/fK5UM/2q3J6/QwSbxe22LZWW933ArIhxpuV1U/v6L+PuODjJ58NfdsRUcwtP1Nl8fs0KiV378cX19J3uX6fUdcaEJ18uD0+5q9jJdblXDPxBn9VCRvl/i5BV/veCcrdfnyMX3Ikorl3s2uecnbHq15rpcdOHlUvbl/mqH8/yWovOQfy1YfDW4UtRDuLKy8Qf51y8nfO9iP9e1krfe962a8DJVxs0tIZXK7yf36OmQkPqB/X551cZ4nidbVG97yyGPl+f2lRrBxeXhuGf0gHSD6dO+jfwuTyeXaU7LmmNy+Ez8F+fsg5p/75Sh42p1knnabUbtDw/mR1HUEhsUrR0J/PUfosMML+6K5Ecbg7yXajIwBawx/NhImtY0mDEi4xytHuiMMTOVdqambtvRe6wzdWbWP2KT07dMpgsYj/sfGQqyhpzZlgyFuQWBjPfEQbtH0g92RTQMhy35khRa71eI2e5btq7bs8Ui5vitRx9bBEND1xdCoTPiNGu2Lo5aA6bzxqE3HZ3uwlrcyNdQqH/Eh05jBt/F87DtDxNoZbPm+wcDQ8iiIRytGmNg6Ao6wk5chh8cIIgr3cwN+ajC0ECEBn05tWOEqzn5UB4LGdOtRAxGy7CJwYUvQig0Dp6836jQSXC+tEhYFWMtVrc+sKv3lXu+kYhG+lzX1HkPhzylE6CQ6SKPOc8Psv3OYQrXw+y3yWnwTU3tka1bFGNhGOJNp9OdpzebCdAfp/N5t1NUAHyM1m21Wb8J5UVaGMHoUa2Yc91M2xPb7rWlQnskR2p3+vNG2mwVduFn1EwaaT6sM8SoKdd5t4oXfqHQiZr1enPDFqdaTxvzfjXXGkmT28POcKvmOQ1DlyZIEq5bXUfzF/FspIW9WcDNOE5ahb6+HZvcDGZGXZwyngWLRKv2YqInKw0GZIOWlGrVndRgrAURUGhMhIKbwYwGiXlSZNaoYc0szoMZ62PY1j9BECBf6Ry//21KhTftSTCL41kwKSwdTgIMw4N4Eopp6y2CRU9rsnimb9UkUsjnax/3Td1MoNBiRqM1MGUNsXrSFr9BaZcqiz0TcjqGbvajARfFhhsd8gfqHqO6V8UH+VjDKohpmjsxrgP7292YrMcZtjmRpox1LH9m01tB2tZaC70oXkhTY6mw2bHEm2w2LqKN3qD3TJtsaSMY+bxqwmGj1i8K07XCuikOoZANRqbBDU7mW8LL/iRAtrBhGlKu0ZIKjXkP0885VRwWUp23cNEhZS34skpTFlOqubF0qy+jVbcxpg2dgZi55gLDcX00wND6LIEPuYnh8BEMu5A+tBsj+ItTVpRz26aJ5AgXDGUYQ6mQjUaGwa3Bywp5oRAieK8+rk+gR49ppVOPYk46YacP88jTpBB62bxe747wUrQvHUwDLWUoNaAAKcNK8/AnpXMsU70/DMejPIEMEZG20Q/96GZAAa758yRJepjICX6noaj4UNvo17s96OEjshOtk83TcTjs4nLUVLQbGI+Z9iSdJ/6LClc+1O1BSB9thxNcOKhqIWKJd325cGAvwqVjUyIW3WY0IUMRdj7CjaeaM5ErGr5jjMq/zTgWTNNCphVz3EowrBlp0Xg0a8hwjQYYTzpgJ5cydkMX8YfwYgyPRcy2R0ORlce4AAqSUMj71fZu9n/Bh5ymnP5CSwBj9OFCLGLxiBBVxZwLH7Ki12ziz9ZQaKFk6qOZCZp0MqKxpbXwQUQPxZIZyjFCDCfaCz+hhYq30NnpMk2IerjR0xiTPBlOZCiMZ7rZlU8vNUyL2WiTQns7Pl9TyFYpyUFsIJ6Q/ZmeCLpI5kZPrsPi2iFaGPKryM66E2EEaNGqXKSL0BA1xId8lspBUgwXdMW5rWqn2U0bPb246q5Cs5vbgsRFPSpiUwQx2QKFds8nhaJKvaoQuVQqtNdtMtYYFNIEM6zkIq8MhMLVyYVCyi3M8rEcbUYlj1HR0Dqm6EqpO2VyCBpDLtEoHYk3DYTg8wrXe4uuUEgbFZGI5EmUPqXCXwUKhUbjmWqBs6RznC2FVlAwM3KFeeFeKUQSRYG4CfIReuIzNHNd2X9vjBEscOn6zLSZYeJdc59CfVfh3JTlMidmLYr/vQrtwTr5IBQDJHVRLVZBzVZROmhusEfhEKkmHlPKagibxGQhukz8kaJUr6+HuBlqzRi6zN683xxWkUEP8qGWBLqRjtfjjNsvKOQyQUh8iqmxUKgbxbtRwGhYXNTWtzd4zyqMaH3V+0a+laAG3G41ODOwKtvIFDt974AqTjPfbx2qsDnTd7aMe6NUa5K/J1V54yBKUMSoJRAKJ9KJLaQVStGhiBYZuq2eaP5yhdqWQh+e4GkXBWtM2qtUKIc92x6Q7U0Lm/58jGQctbWqzZgxl2Jpa7Oh8LnOO1cYIa57cqbazS7d49iv0JlTo7JojKvVcTJDbbFoO0cKdY6OrN26MZHvLWoHu2hHYuq8/H5gzNCvPK9QoxlBpObdEwlmSCu8IYThyBp0sBMe21Y86/mwFT7vCMXx1jo0GmE49J9XSGXWCG58muuZuUC47VeIMkt9omFZVkBtqJU4uUJm2BYWE2m1bV/YCtPRXo0MqpbUcT2vENZRx8hloy0EU/uYiHAOLWo/0aPRuBbmi5oh2xpNRoYpmt6VQrLp384ehSSIWTZs4dRJRi8pROXNm1r6ITtQUS1648CmAoURYrkkq7oQTvnZYKIvtZ9TiJVXSCKoUdVXRvq9gKaMelAW0xx0ZlQ2DG6zoD4vKj4adWEOXXhXoVyfwjHCFmayvC/dpxALDT0sY8xGo90ItZVC5wbRhVVijoqc05obnO4uGSYThnQsHq8ULjiXjX8Yi0o1yzPFcCEO43xT4KS6Ka5msq7cgqGTF2MmziTgRt5nJKLTXpAPY4OLvpiCK4nla6zoETdwHqqi2KK0JzEPRnsUYs+ZjOzAsgfpOG9QqB7Cm+FEt/iom5cN2tZ2GtyyjFFSFQ+6w3k6z3WgV01TOT9+KmjkObPVEIfzVYsUpgMMMkiHRa+A48DsofPsz9M0v1i7XoxBA887+cnNRtrIX0f9kW0FbDIWi6GNc+dF5/MsrSjyHa3Ydgsfktp2tNvqtaJorXjnxSE4+SCbXwRwWruXefVbAeJt//23ilcKX7jIeT+ryKP0D+a/oJAVnfcfij+zgsEHn/ecNk5nOByedyo5iD9c4vl9N12hUCgUCoVCoVAoFAqFQqFQKBQKhUKhUCgUCoVCoVAoFAqFQqFQKBQKhUKhUCgUCoVCoVAoFAqF4v9l0jKNmCpdTgAAAABJRU5ErkJggg==;" vertex="1" parent="1">
          <mxGeometry x="-290" y="320" width="210" height="210" as="geometry" />
        </mxCell>
        <mxCell id="xVaTdNUlve_QaKW05wNs-5" value="" style="shape=image;imageAspect=0;aspect=fixed;verticalLabelPosition=bottom;verticalAlign=top;image=data:image/png,iVBORw0KGgoAAAANSUhEUgAAANwAAADmCAMAAACJZRt4AAAAw1BMVEX1hDScTyX+/v7t7e3////s7Oz19fX6+vry8vL09PT4+Pj3hzmXTCPgeTKaTCHWczGzXCe/ZCzogTz1fyiYRRLFo5L2w6HyupfNrJzAazf1gS2aShyVQACWQgfz1sPvp3fvnWfczMT03tDo2tH77d+wfmX649Csd1vwpnaqc1Xvm2Tti0f//fb03s/yroDk0ceNMwDvhjnullvxzLLytIncfTy6kXvdoHz98+izdFHp4dvntJTy0r30exy2iHDhuaDmeyvu7TDRAAAMH0lEQVR4nO2d6XacOBqGMWIR2ElPBk/SwXYcu5ylO146cbrHk2TSc/9XNfq0IyQKUQUGGX5x3uNFT6Fv0VtVUhSTK8GIXGVC7vIUbhOnCDcpFUtDzKkIt9gtplLMDJGOg4oFiLESC6eYKVGNOFMjjiRcSn/UgKMccQsOfqkFFwtibIhZ2uQwRH3IqY2D3KY2uJZoYqxwi4VL4MIpuTK4y+EupSKCu1KKyBBLQ8wNMZViBnd4ixjDXSHF2BALQ8SGaMWIMFw5XBncFfS2j5gZYtFHjLvFEu5K+esxHiBqI45UUoOJkur5K3HOCZuIhZjo+SvlE4XlL6uIlNjKzVKE+Z62crMasRUjsoXGaFGgMvYUER4HDjdliKNp01dUZlNdZR5fvM+n+39ZNmUp2Px2Wv3+BqPJ5slURRyXBO3k4LAmeEkyTYRPA4dwcfHb2cnBwcFhFNXV2/f0yU3RofSsPGlX5Uk7K0+JORqF43jaTxpVVSdulNrEs6qiyGgkVNG39gymqPUuLjFO7gQah2N4WdGz9RnSD7ERRyN3e4hMyFOBdnDE4cTkHLsUjFvEywv11BpwDC9Gy+1QSPLX0ZpwFO8Nfmy4fo1zW0w2fzTQTDiBtw1OZKqhcM5VQWamKmv+kmKm569kc3rQDcfwIEwVnI9jY8IZotahqGjeFuK5U2yEOLo4M+AOWnCAB10LS0oqGezYoTBxzCKOe8FxvFGK+AzgKN57mJtZiHCi7u0bztZO76ms9os5Ha9E+1wVMIMIwaseM2cF7mJkEfNOMY9J75NtHhIpxpZs2QXHnx6ZEoi6RnDRwbF50kdkg1NiVylwzwmbmJFG68XnW4gdj1JgwfMrBVMYRAltj19HVfXp1RV5EVkR94VjeHhQhI/WfiWs0Tp6DYOvqi8vrzAE3gA42ZTtB273VQFKNh9o58/gYHzRx/vrgXAcby+rghIucFOKjN4W1MvpFktdzOO7D3xRI+DoAD9/fX/nky3NyVmKf8TtJXlrioVT3L0UbD7I9drRa32EVfXn0UA40ZQ9tkH0l1qKGnBR9Gw4HMNLEmfCnqRDeaevRfcJJ60ke07r16HELWcl9TGImnDNwe8Ix/Gsq67hBlHh9oJMcVw4ljmzrMs1Mt0rDWNXgwh/8IHrVwosT29Cg4h+PIGJfnD+T07gaVbSmB0KabT+fX+J+eck/OCeD4IzrKTBcOk2gwjq2tkvVf3l65tr/2k5FI7XPUxLQ7Nx3gon1gqgwh2bA7EUCyHiAkr20S/wz6rP5/cPSemVUIbDCSuJc7ARl3LEiRXDr0Nh3QjAsX9HWuT/PNfhmuPZK5yYnCMZRBtujAs4+H/1Pw4mg+OTUw1ufx3KN+n5a3DR4aRwykraM9yFXL90wI0YcwoP6l4/uL4xhy6Oe8A1xzEKHH8DDPUxiIw0IxOjKSabs+1wLyaBE09Py5bmiBsGkbPOwe9TcVZwupXkNoi2dCikG/n+4wpnEMLzglNW0sD2i3Yjz6roy+2Pq+vZwYm61wXnXBUw2+fon1DMqurT+feTucExvGKrQVSQizsrcCnbB+DY31EjnQ+csJKKwoohVuI0h9IlLEus37jtI+GiecJRvEto6NsYriKe/MpL9vzhoui/r7BXh5L8erwcuMoJZ5uWi4NzTcucRF9Owy8jtzmLxDxeFlxWUIzMwHCUAvyvJcG99DOIFgfn06EECSfeWV04XGo3iMR74guDcyx5HIvVZWVL5GUQLQzuSXYoQcMFHXPWNBNKtrQbREuDWzuUwOCCXhWwd8rZQgjeKV/qeo5+CsDAcHxUY3mloI0RehEPGi5og8juOC8soZQOxznoUhB0EX9CcAs3iMx3VrHVICoWBhcbGEEbRPlqEK1ws4ULM+Y0g0hsoSALxOIMIvV5S20LtSdVxFe45cAFvSqwbxmysGyZObYMWQ2iucOtHUowHUrDIJJf9uR3+bLgSvM7q3xTM/u3jQMpBUEX8ScAl4RoECV829U4z8VeGXQT02xZcGxXjRZGyKVgNYhWuFnCqclaBhRzwiAKo0Mxvhm/digr3HzhVoNo5nCvCvtGs47dgBcGtxpEocEFvCpAkX2/+MUZRPZd7wNpv1aDKES4oA0i40CbxRlE2sb7+rk8AZeC1SBa4WYJZzOIFgfnar9o5MUBdSirQbTCzRwuaIOIvpHFnJVYOivxwrIlM4haGKtBNHu4J96hBLcqEAaRubt8vqxsmbc/AwXXahAtAO4JdijhG0Sms4LLZcGtBlFoRXyFWzwcKhcMhxSGDhecQbR2KCvczOHCNojgYmkG7nKE4fvxi8yWcWFg8FIQmEH0tIp4iHBBrwr4LvfGDj4LW8/lpRUjFIPIguE8Z3V5cE+vQwnFIEptBhGLxOYeg/nSEkqcGxirQbQQuCfZoQQBJ04xszXOjSUPXAtd8pgYq0G0ADi/DmVJhw55wqHNuzPzuKjn84Srq9uHToOoFXMpwpufx+qgr7qu5vnkqvr8io24l0FEsyW8BOXm3TEc0VZXVf3p48u/Z3hEW1XfXjETvWUQaXXOKBDMbkEFmZz/i758vb9EGPc50HJaOIpmPU+831GkxeaGTGh4HWYHV1UfAW2Xc1Zz+H0QZwZX1+c3OOPZzwnnWBUkg85ZnQqOoqHt56xKZ0WdAcZPNdPsFjgYrM+BltMcIksy5E2ey62omyPWMYRBRAsEzaHkThxzH9PzxLm4mcnxvwTtEiN+njhMKRpDFgynQSSnsTwJPine2Q9uPpoUrqpuCdr+j7kvZNei4Op6UjiCduV1zP22aSnEmHYtZ+qwdNK1RL8bh6WPCsfqGnCkqTktU+u0tDvODjHLAQ/g4FzZ2/uHPJ7smHt4anHeGFy5ZcR+x9yTnyST8/hZFb19efMAZSVpwjXHs0e4mj411QhvOea+0yCSYmmIEIF333/wtmUquJq2x41cAHf7OwlewoELQe7L1B/uYBAc1LXSTHQecOY7qw04XaTObpmIVDUBHKtrJgdk8TZcP4NIiqUUsSHy/ZK9Eoo/HMmQNxjz3fi1wZmrG/uSx/5pBhm4hRRjQ2TRjD/4wB15wtXw1NQXx5BKdKboYxDZirh1TowJV7H2mM2TZtjvvUOxw/11ejIOHNQ1mjYeDy4ldU/iNeBImf9zOFwNjRYb8g5wDoOob8ylsilrwtXVp1dXapXkCVdVzPZR4ZUPijlrtkws2dIUS5lCk4zjiVJQV59v32OML0y4ftmSdiNGDuRnl1gSoya27PQ4tlS/jjqHjDrHRLZioHB1Vb+9v4YpNQxOt31aQTCgznl2KNYoKDY/T09ekwlFpiPM14FwVf3x0rB97HBopPbLEeLJt58vPn99g2WI+8PVFUn+vR5SPzjPVYESbWX14RrWWiLEkScct30605ffqqDARSG+SkHu+DdCmiLfJ4ysk8TmIg6Rn0koRGW79IBjtg//dT4ONbj+oobh+KgGfdKJmBNiJd4Qi4aYsGjWxET3lLaWAog1jGT6Sm1tui7mUsSGqH9UY9ci3hEF/eFIhqS2j0eE9yriM4Cj3Yhv+uoHt9uqoDPEe8FRR4t+BMg3fW3vUOALnsJZIXdq+/h+YuESyV1+tz2hAFou/3rj1xv/0ipmLnGgQeTzWqKLP0664Vh7vKd5Yvm28f6KuCUKZEtthbPYPjtE+LgdigUOka7l9MQOR5L/jfke1L7hGIfVIJJFZnvjbKs8TGziSbiqgrqmV1U3Rx/RisGXPOSS3zaAXTWkyFc3Q0X6ODcK71A8tfOrgm5ODxcSPxlnSIi5EvleGd1iLEQdY1eDqE+Il+Tp8bdQDnmsXeLGft/7SF+2UjBiEVdRkHA8gOO2zwgRPmmHood4ktzBcvYQlqLZSOnr0eBIFICVROvaWLl5BIOoZ1kFK6m4u9ICsW/MeRpE+r5fzZdt+3sF20tB47XUxKQhqhdYW2Bl5jxxLLC4mOkLrEYQ7FLErXA9Jgrj6A6CYXXOijFuhzIEbjHt12PD2drp8crqBC2DbhDZtwyxbjTbFLM+orkPvX2PfSmW3aI2DreobxnSzF9ug6gzf8Wia20YRO1W1t7fWtp0f4PIhjFdEbdk7HA6lMeDo88TIUtZRTY4p6itPuWQUWtagmhrGVoiEsSOlkGN2CbG/wcTz46978CyRAAAAABJRU5ErkJggg==;" vertex="1" parent="1">
          <mxGeometry x="-30" y="150" width="95.65" height="100" as="geometry" />
        </mxCell>
        <mxCell id="xVaTdNUlve_QaKW05wNs-6" value="" style="shape=image;imageAspect=0;aspect=fixed;verticalLabelPosition=bottom;verticalAlign=top;image=data:image/jpeg,/9j/4AAQSkZJRgABAQAAAQABAAD/2wCEAAkGBxAPERUQDw8SERAQGBUWFRAVFRYVFRUQFRUXGBUVFxcYHSggGBolGxUVIzEhJSkrMC4uFx8zODMsOSgtLisBCgoKDg0OGhAQGi0mICUtLSsvMi0tLS0tLS4tLS0tLS8tLS0tLS0rLS0tLS0tLS8tLS0tLS0tLy0tLS0tKy0tL//AABEIAOEA4QMBEQACEQEDEQH/xAAcAAEAAgMBAQEAAAAAAAAAAAAAAgYBBQcEAwj/xABIEAABAgMFAwYKBwYFBQAAAAABAAIDBBEFBiExQRJRYRMicYGRoQcyNEJSU3KxwdEUI2KCkpPwFhdDVdLhVHOissIkM2Oz8f/EABwBAQACAwEBAQAAAAAAAAAAAAABAgQFBgMHCP/EADkRAAIBAwAGBwcEAgIDAQAAAAABAgMEEQUSITFBURNhcYGhsdEGFCIyNJHwM1LB4ULxFSNicrKC/9oADAMBAAIRAxEAPwDuKAIAgCAIAgCAIAgCAIAgCAIAgCAIAgCAIAgCAIAgPDa9pNloZe7Fxwa3VzvlvK97ehKtPVXeYOkL6FnSc5b+C5v83nwu3MOiwOUeauc5xJ68uhXvIRhU1Y7kkeGhq869t0k3ltvzNqsU2oQBAEAQBAEAQBAEAQBAEAQBAEAQBAEAQBAEAQBAEAQHxm5lkJhiPNGt/VBxV6dOVSSjHeeNxcQoU3UqPCRzy1bQfMxC92Aya3Rrd3910VCjGjDVR83v76peVXUnu4LkvzeW+6Pkzfad71p9IfrPuOz9n/oo9r8zdLCN2EAQGgmL6WZCe6HEnoLIjCQ5jnbLmuGYIOIKrrI9FRm9qR8/27sr+YS/4wmvHmW93q/tZn9urK/mEv8AjCa8eZPu1X9rH7c2V/MJf8YUa8eY91rftZn9uLL/AJhL/jCdJHmT7pW/Y/sP24sv/Hy/4wnSR5k+51/2P7Gf23sv/HwPxhOkhzHuVx+x/YfttZf+PgfjCjpYcyfcbj9j+xh1+LLGdoS4rveApVSL3MrO1rQ+aDXcemVvVZ0U7MOflXuPmiND2uytVbKPJ05rembdrgRUEEHUKShlAEAQBAEAQBAEAQBAEBF7w0FziAAKknIAZlSk28IrKSjFyk8JFDvBaxmX0bUQmeKN59I8fd2rf2lsqMdu9/mD57pfSbvKmI/It3X1v+OS7zUrKNOXu6Xkzfad71or/wDWfcfQfZ76GPa/M3KwjdhAEBT7+3BgWqzbFIM2wcyOBg4DJkQec3jmNNQaTgpGRQuHSfUfn22bIjyUZ0vMwzDit00c3RzT5zTTMe8ELCnFxeGbmlUjNa0TyBUPZH0CqXRMKrPREwoPREwql0fQKp6Iy5gcKEVBRNp5RMoqa1ZGrmZYsO9pyPw6VlQnrI1Vai6UscD0WZakxLGstMRYJrX6t7mVPEA0PWrqTW5ni4Rl8yyXqwvC7aECgmBDm2faHJxOp7BTtaV6Ku1vPCdjTl8uw6bdvwj2dPUZyv0eMcOSjUbU7mvrsu4CteC941YyMGraVae3GV1FwXoYoQBAEAQBAEAQBAU689s8oTBhn6tp5zh5zhoOA71ubK11Fry38Oo4jTulumbt6T+Fb3zfovFldWwOZMoC83T8mb0u960V/wDrPuPoXs99DHtfmblYZuwgCAIDS3quxLWnB5KZZiKlkUUD4bjq09lRkaKsoqSwz1pVZU3mJ+er3XSmbLi7Edu1DcTycdo5kQf8XUzae8YrCqU3E3dCvGqtm/kaQLxZlImFDLomFU9EfQKpdEwoZ6ImCql0ZewOFDkUTcXlEygpx1WaqNBLDQ9R3hZcZKSyjUVKbpy1WRCEImFB6IvFwr+zMg9sKI50eVOHIudUsA9UT4uHm5HhWqvGvKG/ceNWyp1+qXP1/MnebJtSDNwhGgPD2O11B1a4ZgjcVnQnGazE0VajOlLUmsM9iseQQBAEAQBAVy9Fs7AMCEeefHcPNB0HE/rhsrK11v8Aslu4HMae0t0SdvSfxPe+S5dr8F4VBbc4kzRCBRAXm6fkzel3vWiv/wBZ9x9D9nvoY9r8zcLDN2EAQBAEB5LUs2DNwnQJiG2JCeKFh7iCMQRoRiFDSawy0Jyg9aO84Jf7wfxrMJjQtqNJk4RKVdCrk2LTTQPyOtDSuFVouO1bjd2t2qux7H59hTQscz0TBUHoiYKqXRMFQXRMFVLpkwVBdMhMQg8U10PFWhLVZStSVSOOPA1lKYHMLJNVueGSCguibHUxGY96qy6ZcrtXhjyTxGl3UDgNuGfEe3c4bxjQ5jtBxqdWVGbwZNa3p3NPE12Pijt12LywLQh7UI7MRtOUgu8Zh+Ldzh3GoG4o1o1Y5Ry11Z1LeWJbuD4P85G6XsYoQBAEBqLwWuJdmy01ivHNHoj0j8Fl2lt0ssvcvzBptMaUVnT1Y/O93V1v+Ob7yjOJJJJJJxJOZO9b1bNiPnkpOTbby2EKhAEILxdTyZvS73rR336z7j6H7PfQx7X5m4WGbwIAgCAIAgIxIYcC1wDmuBBaRUEHAgg5hBnBxnwg+DF0HamrOaXQs3yoqXM3uh+k37OY0qMBiVaHGJuLS+T+Cpv5+pzBpWIzbJkwVUumTBUF0yYKqWTJAqC6ZIFQWTPLPQvPHX8CvalLgYdzT/zXeeUL0MZEgVBZG2sqJVpb6J7j/eqxa8duTMt5ZWDbWfOxZeI2LBeYcRmTh3gjIg7jgV4wnKDzFnvUpwqRcJrKZ2S5l9Yc+BCi7MKaAxZ5sSmbode3ZzHECq3VvdRq7HvOXvtHSt3rR2x8u31LYso1gQHita0Wy8MvdiTg1urnfLivahQdWWqu8wNIX8LOi6kt/Bc36cygTMw6K8veaudmfh0LoIQUIqMdx82uK869R1Kjy2fNWPEyhAUAygLvdXydvS73rSX36z7j6H7O/Qx7X5m3WGbwIAgCAIAgCAIDm3hB8GrJrampBrYcyaufBwayMdSNGRDvyJzpUlY9WipbVvNjaXzhiM93l/RxaNBfDcWRGOY9hIcxwIc1wzBByKwXFp4ZvIyTWUYBVT0TJAqCyZ9YMNzyGsa57jk1oLiegDEqYwlJ4issmU4wWtJ4XXsJRYbmHZe1zHei4Fp7ColCUXiSwWhUjNZi8rq2kTjgciqrYWeGsM1r27JI3LITysmtktV4YBQHusl9H03jvH6K8K6+HJkW8vjwbhYZnokxxBBBIIIIIJBBGIIIyIOqJtPKL71hnUrleEARNmXnnBsTAMmDQNedGv0a7jkeBz21tea3wz3nO3+iXHNShu4rl2c14ryv03MthML3mjW/qg4rZ06cpyUYnN3FxTt6bqVHhI5/ac++YiF7sBk1ujW7v7roKNGNKOqj5rf31S8qupPdwXJfm88q9TBMqCDKAzRCAoBdrreTt6Xe9aS+/WfcfRPZ36GPa/M26xDeBAEAQBAEAQBAEBUb9XFgWo3bFIM20cyOBg4DJkQec3jmNNQfKpSU0ZdtdyovG9cvQ4JbFlR5KM6XmYZhxG400c3RzT5zTTP4grAnBxeGdBSqxqR1ovYeRuOAxJ04qmM7EeuTqdy7t/RGcrFH/URBl6tnojjvPVpj0dhZ9DHWl8z8DkNK6R94l0cPkXi+fZy+5YJuVhxm7EWG2I0+a4AjvWfOEZrElk1VOtOlLWpyafUUa8VyiwGLJ1cBiYBNXU+wTieg47iclpbvReFrUft6HS6P09rNQudn/lw7+XatnmUKbbruwK1MNmw3dwt0jzhXPDJ6JB1Ijen3ghedVfAz1pPE0b9a82aMoWRlQWRYrMvRFDGwJiI58FniE4lnA6ubu1GmGA3mitKK3erV3PjxX9HGe1XszPSNLpLV4nHbq7oy9Jcm9nZlssbHAgEEEHEEYgjeCuxjJSSlF5R8XrUp0ZunUi1JbGnsafWSUnkZCEGVAMoQYiPDQXOIa1oqScAANSoJjFyaSW0tlxZ5sxKCIwENL4gFcyGupWmlVpLx5qs+l6FoOhZxhLft8ywrFNqEAQBAEAQBAEAQBAaa9F2pa0oXJTDMRUsijB8Nx1aeyoyNFWcFJYZ7Ua86UsxOY2BcX6FMPfMPZGdCdSEW12f8wg5Oxps40IOJwKyLGx1X0ku71J0jpTpIdFT2Z3+nr/sthW3NCYKkqRKFSkX9u0HtdNQG84CsVg84D+IOI13jHTHU6Qss/wDbDfx9TodEaSePdqr2P5XyfLs5ct3ZzMFaY3p9pQ/WM9pvvCpP5X2F6b+JdqLEtabZGULIyhYyoJNlZNrPlzTxoROLN1cy3ceGR71tNH6UqWrw9seXoc17Q+zNvpeGt8tVLZLn1S5rxXDZsdylozYjQ9hq12IK7WjWhWgqkHsZ8OvrKtZXE7eusSi8Pj1r7rafVehiGUIIxorWNL3uDWtxJOQCgtCEpyUYrLKPb9tumTsMq2CDgNXEau+A/Qo3k6Syso0FrPbLy7Dr/g0gFlmwAc3co7qdEeR3UWlunmqzsbNYoxLOscyggCAIAgCAIAgCAIDVW1aXJjYYfrHa+iN/Ssq2oa71nuMevV1Vhbys1WzMDJhSVIkoQYUlTBUkHHb72J9DmTsCkGNV8PcMeczqJHUQucvrfoqmzczrtG3fvFL4vmWx/wAPv8zSyWMRntDuNVr6nyvsNpS+ddpY1rTaoyoLhCTKFsmQCcAKk5AZk6BEm3hByUVlvCR0KRgcnDZD9BoBO8gYntqvotrR6GjGnyX+z84aXvffb6tcrdKTa7OHhg9AXua081oWhDl27UR2eTR4zjwHxUNntQt6laWILv4IpNr2rEmXc7msHiwxkOJ3niqHR21rCgvh38WeAMJwAqTkN5QyltP0dY8n9Hl4UH1UNjK7y1oBPaFz85a0m+Z1dOOrBR5I9iqXCAIAgCAIAgCAIDxWpPiA2ubz4rfieC9qFF1JdR5VaqgusqUSIXEucak4k8VtkklhGscm3lkaqxXJGqEGFJGTBKkgwhBXL+WZ9Ik3kCr4H1rfujnjrbXrAWJfUukovmtpn6Mr9FcLO57H/HicqsptYreFT3f3C5Wu8QZ2tus1Eb9a82ZlQWRlCwQksF2LM2ncu8c1viDe/wBLoHv6F0GhLDXl081sW7rfPu8+w+f+2/tBG3ouwov45r4v/GL4dsv/AJ7UWpzgBUkADMnAAcSusPkSTbwjQ2neVratgDbd6Z8UdA873dKrk2lvoxv4quzq4/0VePFfEcXvcXOOZP6wHBQbmEYwWrFYRHZQnJYbg2X9JnoTSKshHlX+zDoR2u2B1rHup6lJ9ewzLCn0lZdW07qtIdKEAQBAEAQBAEAQHwnJpsJhe7IZDUnQBXp03OWqilSahHLKdNzTori92Z00A0AW4p01COqjVTm5vLPjVXKZMVUkZBKEZIkqSMmEICkGHNBFCKg4EcFDGcHF5GT5KNGZ6pzodfZcQf8AaFxV8tSWp1vwPoujn0kek5peO02K15swhJlQSja2fZrcIky8QoeYaTR7xwGYHHPdvW80doiVZqpW2R5cX6L8XM4/T/tSrVO3slr1dze+MO17nLq3L/Lk9pM3lYwbMCHWgoCRstAGVGjGnYutjiKUYrYj5d7hVrTdS4nlt5fFtvm/9minJ+LHNYjyRo3Jo6AENhSoU6SxBep5wFJ6ZJAIRkzsoRk634K7H5GXdMOFHzB5vCE2ob2naPEbK1F9U1p6q4HRaMo6lLXe9+Rd1hGyCAIAgCAIAgCAhFiBgLnGjRiSpjFyeERKSissptrWlyri9x2YbfFBNABvPErc0KKpxxxNTWrOpLPAr03eSWh4B5iHcwV7zQd6yVSkzyNTMXxP8OCBxc6vcB8V6KjzYPBFvXNHIw29Df6iVPRRGDzuvJOeu/0Q/wClT0ceQwG3nmx/FB6WM+ACjo4jCPTCvjMDxmQnDoc09tadyq6aI1TYy19IRwiwns4tIePge5V6N8Bqmvvf4QYcoxglWtjRogJ5wcGsaMKuGBJJrQYZHFYVxcdFsW897e36Xa3sKLZVvmZjP5RjWxIznRKtqGlxxIoSSMBvXL6QpuUnVOy0RcxUVbtdj5m5WrN6FsLfRlxW3Rwub2f2aq701Z23zTy+Udr9F3sB27tXQ2miKND4pfFLr3fY4/SPtHcXKcKfwR6t77X/AAvEznjqdVtjnCQCkqTAUlSQCEZJtbXAZnRSVbLHdy6EebiAOHJQ8C9x8YN4Df0rxr1lSjnjwLWaV1W6Ontxva3JdvN8F/GTtMCE1jWsYA1rAGtaMg0CgA6loW23lnZpKKwiagkIAgCAIAgCAIDl19L8OdEdLyzRsQnFpiHEOe3AkAZgGoFenct5ZWajFTlvZrLmtry1VuRRJuciRTWI9zzxOA6BkOpbJJLcYx5yUBElQCJUEkSoB95SSiRjzG4auODR1/JYl1e0bZZqPby4/b8Rj17qlQXxvu4m7lbAhtxiEvO7xW92J7VztxpytPZSWqvu/Tw7zS1tLVJbKawvu/Q2cGXYzxGNb0ABampXq1fnk32s1tStUqfPJvvKh4QbuPmdmYhEbcNuw5hNNpu1zaE4Vq45717WtZQ+F8Te6D0jGhmjPc3lPk8bc/YjcvwdxmxDGnhyYaCGQ2uaXbRw2iRVoAFcMc+GPRUbLP6q2ct566R9qFTwrKXxfuw1s5LcyyTVzXfwo9R6Lx/yb8lmwoU6fyRS7Fg1r9pa1ZYuHJ//AKb8H6msjXYm25Qw/i1zf+VCvQvHSdtL/LHamed1kTLc4ETqaT7lJ7K7oPdNfcwLNj+ojflv+SkO4o/vj90feHY0ycoD+ujfeh5yvKC/zXn5HtgXbmD42wzpdU/6aqTHnpKit2X3euDZS12YY/7kRzuDRsj4n3Jkw6mk5P5I47dpvLKstu0IcCGA52utNSXHGipOahHWkeFKFxe1VSTy39u06FZ0k2AwMbifOd6Tt60daq6ktZn0fR9jTs6Kpw73zfP0PUvIzggCAIAgCAIAgNDfa2foUm+I00iv+rh/5j64joAc77qybSj0tVJ7t7PGvU1IN8ThNV0uTUmKoDBKgBrS40aCSdBiVAbS2s2MvYr3YvIYN2Z+QVlBsxZ3cV8u02UvZMFvm7R3ux7sloNJ6YjRbpUNsuL4Ls5vwXWaq50jU+WL+xsGgDAYAaLk5TlOTlJ5bNTJuTyySgqEBpb1RtmE1gOL3dzcfeWpk2OjYZqOT4LzLlKRxEhsiDJ7WuHWKrvac1OCkuKyc9Vg4TcHwbR9VcoCUBAuUlkiJchOCJchbBEuUk4DAXENAqSaADMk5BQ2kssvCm5yUYrLewvNhWUJdlTjFd4x3fZHD3rS3Nw6stm5H0XRGi42VPL+d73/AAvzb9jaLGNwEAQBAEAQBAEAQHIvC1avKTTJZp5su2rh/wCWJQ49DNj8RW80bT1abnz8l/ZrrueZ6vIotVsTFMVUA2kjYz386JVjd3nH5daso5MapcKOyO1m7l5ZkMUY0Djqek6q6WDAnUlN7WfQrQ6b0k6Eehpv4pb3yXq/zgYVxV1VqreYquLNcSBUgyFJBJSQVe9cSsRjfRbXrcT/AEhGbrRscU2+bLJcmd5SX5MnnQTT7hxafePurq9D1+koar3x2d3A0+l6GpX11ul58fXvLAStsarBAlC6RAlCyRAuUkpES5C2CBchOC5XYsbkwI0UfWO8Vp81p16T3LU3dzrPUju8zudBaJ6CPT1V8T3LkvV+C7ywrBOkCAIAgCAIAgCAIAUB+cLYn/pMxFj1rysR7h7BJ2B1NoOpdRSjqQUeSNNOWtJy5nwl4Lojg1gqTpw3ncFc85SUVllls2yWQuc6jom/Qez816KJg1a7lsW495VjGZEo2kssq2fOq+ZXNw7irKrLi893Bdy2GonLWk2ZXiVMgqSCQKkgkFJBULxurMO4Bo/0g/FGb6xWKC7/ADF3rS+jRg8+I7mv9k69Roe3es3R117vWTe57H+dRF9be8UXFb1tXb/Z0ku3LtUcjjBAlCyR8yVJZIgShZIgSpLJFkurYu2RHijmDxGnziPOPAfrjr7y51fgjv4nU6C0TrtXFVbF8q5vn2Lhz87itUdkEAQBAEAQBAEAQBAa68kyYMnMRRnDgxXD2gwkd69KMdapFdaKVHiDfUfnqQk3xnBjBlm7Ro3ldMtppJzUFlltkZNkFuywY6u1J4/JeqWDXVKjm8s9BKseZEqSrIlVqU1Ug4Pc019yktqwfMhfP9I6Lq2UsvbB7n/D5PwfDktdUpOD6hVaw8jIUkEgpIJBWKlQt/yh/wB3/Y1Qzf2X6Ee/zZr0MouV1LYq0QIhxGDHHX7B+HZuXR6I0gni3qP/ANX/AB6fY0Gk7PEnVh3+vqWNxXQmoR83FCyIEqSyRrrRtZksW7TOUJIJh7WzVgONSMq4ha3SOkI2scLbJ7l/PoZ9jbKrNOa+Fb+vqOpXdtuXnYIiS7sBQOh4B0M08VzdPdhgtTTqxqrWTPo1CrTqQThu5cjaK57BAEAQBAEAQBAEAQGnvhCL5GYYDQvhubXdXBZFqs1o9p4XMtWjJ9Ry+TlWwWhjBhqdSd5XUKODlp1HN5Z9qqTzyYJUkESVJUwVJBEqs6cakXGaynvTKPaZhwnOrstLtkFxoCaNGbjTICoxXEaX0M7X/tpbYcuK9V4rjzMWVvJ5cFnG3sXoRBWhMYkFJBIKxUqt5G0jk72tPw+CM3lg80V3mrUGYeiUdjTrHSolzPOotmS1WVb2AZHPRE/q+f8A9XRaP00sKncPsl6+v35mjubDbrUvt6ehvA8OFWkEHIjEHrXRxkpLWi8o1uGnhnktGdbBZtHE+a3efksa8u4WtJzlv4Lm/wA3nvQourLVRS5mK6I4veaudn8uhcPWrTrTdSb2s6GnCMIqMdx97ItSNJxRGl3ljxn6Lm6tcNQf1iq06koPMTIpVpUpa0Wdpuhe+DaLdnCHMNHPgk5j0mHzm9410J3FC4jVXWdDbXUKy2b+RZFkGUEAQBAEAQBAEAQGsvL5JG9grJs/14dpi3v08+w5fVdScpkxVCDFVJGTBKEESVJVkoEF0RwYxpc9xoGjMlRKSinKTwkIxlOSjFZbOoXcsVsnD2cHRX0MR+87h9kaduq5e8uncTzwW5fnE66ys421PHF73+cEaS810tqsaVaA7N0EYA8Wbjw7OOiuLP8Ayp/b0NRpPQ2vmrQW3iufZ6FJIINCKEYEHMHctccpJNPDMhWKs0F6YfOY/eC3sNR7ypNro6Xwyj15/PsaJQbINdQ1GiBrJsm4io1Xk9hhtYeD6wY74fiPc3oPvGq9qNxVovNOTXZ6FJwhP5lkxNTD4prEcXEYDLLqVq91VrtSqyzj84E06cKaxFYPOQvE9ckCEJySgRnwnCJDcWPYatc00IO8FWjJp5ReE3F5TOt3Iv6ya2ZebLWTOTX5MinT2X8MjpuW2t7pT+GW/wAzfWl8qnwz3+ZelmGwCAIAgCAIAgCA1l5vJI3sFZVl+vDtMW++nn2M5bVdSclkxVCDFVJBglCMmFJU6LdC7/0ZvKxR9e8ZerYfN9o69nTzmkL3pnqQ+VeP5wOn0bY9DHXn8z8Fy7ef2LItabUICv3ju0yarEh0ZH36P4O48fesS4tVU+KOx+ZqNI6Jhc/HDZPwfb6nPZiXfCcWRGlr25tP6xHFapxcXh7ziq1KdKThNYaNVeCDtwSdWEO6sj769SHvYz1auOewqig3YQk9UjF8065dO5VmuJ41o5WT2ELzMbJAhSWyRIQtkgQpJIEKSyIEKSyOjXI8IRZsy8+4lmTJk4lu4RN4+1prvGxt7v8Axn9/U3Fpf7oVPv6nU2OBAIIIOIIxBByIWyNuZQBAEAQBAEBrLz+SRvYKyrL6iHaYl99NPsZyuq6o5HJiqEZMVUkZMVQjJdLlXfymozeMJh/9h+HbuWl0le76MO/09ftzN7oqx3V6i/8AVfz6ffkXZaQ34QBAEBrbbsWFNso/mvHixBm35jgvGtQjVW3fzMG+sKd3DEtj4Pl/XUc3tiyYkBxhRm4OBAcPFc04Eg9a1M6cqcsSOIurWrZ1UprrT4M53MQixxYc2kg9S8jcwkpRUlxPmhcAqQbOWi7YrqM14yWGYdSGq+o+hCgoQIUlkQIUlkfMhSWIEKSyIEKSyLbcq/EWQIgxtqLKnzc3QuLK6b29lMa5dvcunsluNhaXjp/DLavI7NITsKYhtiwXtiQ3irXNyPyO8HELaxkpLKN5Gaksxew9CsWCAIAgCA1d6PJI/sFZVl9RDtMS/wDpqnYzlVV1Zx2TFUGTFVJBY7oXf+ku5WKPqGHI/wAR409ka9m+mt0hedDHUh8z8P75fc2mjbHp5a818K8X6c/tzOkBc2dSEAQBAEAQHmn5GHMMMOK0Oae0HeDoVSdOM1iR4XFtTuIalRZX5uONeEO60WUeIwBfBfgYgGRGW3uNMNxp1LU17eVPsOedjUtcwe2PB/w+vzKWscqYQknBilhqOsbwjWVgrKKksM2rHhwqMivFrBhSi4vDMEIEfMhSXRAqSyIFSWR8ypLIgVYsjc3WvTMWdE2oR24Tjz4BPNdxHou+121yXvRrypvZuMu3uZUXs3cjuF3rel5+Fysu6uW0w4PY7c4adOR0W3p1IzWUb6lVjUjrRNornoEAQBAau9Hkcf2HLKsvqIdph3/01TsZyeq6w43IQZNrdyxXTkXZxbCZQxH7h6I+0e7NYt5dK3hni9y/OBmWVnK5nj/Fb3/HazqcvAbDaGMaGsaKBoyAC5Wc3OTlJ7WdhCEYRUYrCR9FUsEAQBAEAQBAYc0EUIqDgQciEBTLf8G0lM1dBBlYh1hisMnjDyH3SFi1LSEt2wwqtjTntWx9Xoc8tnwe2hLVLYX0hg86DzjTSrPGr0A9Kwp2lSO7aa+pY1YblnsKrFhuYS1zS1wzaQQQeIOSx2mt5iNNPDJS0csPA5hVccopOCmjZhwIqMQV44wYbTTwyJUko+ZUlkfNyksiBUl0fMqSyIOViyPVZFrR5OKI0u8se3P0XN1a4ec07uvMVXpTqSg8o9qVWVOWtE7hc2+UC0mbOEOZaOfBJzHpMPnN7xroTtaNeNRdZvaFzGqussy9zICAIDV3o8jj+wVlWP1EO0w7/wCmqdjOTVXW4OLyeqyrPiTMVsKGMTiTo1ozceH9l5V60aMHOX+z2t6E69RU4f6XM6vZVnQ5aEIUMYDM6ucc3HiVydevKtNzkdnb28KFNQh/vrPYvE9wgCAIAgCAIAgCAIAgPNO2fBjjZjwYcUbnsa8d4UOKlvRWUYy3rJopq4NlxDUyjWn7D4jB2NcB3LxdvSfA8ZWlF/4nwh+DmzW+LDiCunKvp3lUlZ0nwPKWj6Et68SX7vbP9XE/Mcq+40eXiV/4y35eJj93dnerifmOU+5UeXiP+Nt+XiY/dzZ3q4n5jk9ypcvEn/jqHLxMfu4s31cT8xyn3Oly8Sf+PocvEx+7azfVxPzHJ7nS5D3Chy8TH7tbN9XE/Mcp90pcifcKPLxI/uzsz1cT81ye6UuRPuNHkfSX8HNnwntiQ2xmPYate2M8EHeCCrK2pp5RaNpSi8peJZ+Qd61/Yz+le2DIx1n3UkhAau9Pkcf2Csqx+oh2mHf/AE1TsZyiXgviODIbS57zQNGpXWTlGEXKTwkcXCEpyUYrLZ1S7diNk4Wzg6K+hiP3ncPsjTt1XKXl27ieeC3L84nZ2NnG2p44ve/zgbdYhmhAEAQBAEAQBAEAQBAEAQBAEAQBAEAQBAEAQBAEAQBAau9A/wCjjewVlWX1EO0xL9Ztp9jNbc27v0ZnKxR9e8ZerYfN9o69nTk6RvemlqQ+VeP5wMTRej+gjrz+Z+C5epZlrDbBAEAQBAEAQBAEAQBAEAQBAEAQBAEAQBAEAQBAEAQBAEB8pjL7zP8AcFaG/wC/kVnu+3mfVVLBAEAQBAEAQBAEAQBAEAQBAEAQBAEAQBAEAQBAEAQBAf/Z;" vertex="1" parent="1">
          <mxGeometry x="50" y="285" width="65" height="65" as="geometry" />
        </mxCell>
        <mxCell id="xVaTdNUlve_QaKW05wNs-7" value="S3" style="shape=image;imageAspect=0;aspect=fixed;verticalLabelPosition=bottom;verticalAlign=top;image=data:image/jpeg,/9j/4AAQSkZJRgABAQAAAQABAAD/2wCEAAkGBwgHBgkIBwgKCgkLDRYPDQwMDRsUFRAWIB0iIiAdHx8kKDQsJCYxJx8fLT0tMTU3Ojo6Iys/RD84QzQ5OjcBCgoKDQwNGg8PGjclHyU3Nzc3Nzc3Nzc3Nzc3Nzc3Nzc3Nzc3Nzc3Nzc3Nzc3Nzc3Nzc3Nzc3Nzc3Nzc3Nzc3N//AABEIAMAAzAMBEQACEQEDEQH/xAAbAAEBAAIDAQAAAAAAAAAAAAABAgYHAAQFA//EAEkQAAEDAwEDBwYJCAoDAAAAAAEAAgMEBREGEiExBxNBYXGBkRQiUaGxwSMyQkNSYnKS4RUWM1OCotHSJTQ1c5OUssLw8SRjg//EABkBAQADAQEAAAAAAAAAAAAAAAABAwQCBf/EAC8RAQACAQMBBwMDBAMAAAAAAAABAgMEESExEhMUIjJBYVFx8FKBoUKRsfEzYsH/2gAMAwEAAhEDEQA/APKC8F5JCCggoKAhEuBBQQIUB6UFIFAqAolSBCBCgIQI4oKCBCBCClA4gUFBElBj6tcEIEIKCSKUDgRJCBCCgoCEFIFAqAoFEqQKgIQIQUECgQgoKBxAoKRLH1a4KBQKCgkilA5kBElBQRJChBBHSQo3gUCDwOexSFBzab6R4rneBQIPDep3SUFIEKAhAhBQQPQgQkigoHEFIMfBVrkoFA5QKCgd2ehRI7dBbq64v2KCkmqD07DfNHa47h3ldVpa/pjd3Ws26Qye38n11nAdWTU9KPog844eG71laaaO9uZ4XV01p5l7tPyfWmDzqqqqJfTlwYPUr66PHHqlZGmpHWX1dbtF0B2Zn2/bHRLOHO8M5U9nS167Ouziq4L7o2lJaw02R9Gle717KTn09ff+DvMMOHV2lm/EYD9mkI9yeKwfkHfY3Pzw00fm3f5ZT4vB+Qd7iUNUaUf8YMHbRuPsaufFaef9He4pHlWi63Bc6hGf1jDH7QFM301usx/g7WGy/wA19M17S6kezfwNPUZHqKjuMF44n+0ndY56OhV8nrCM0Vwc3qmYHA94wq7aGNvLLidN+mXg12k7zQguNKJ2Di6ndt+rc71LNfS5ae2/2VThvHs8VwLXFrwWuG4h24gqieJ5VOcDvUBQVlAoKCBCgIQY8CrnKsqAhAhB2rbQ1VzrGUlDE6WV2/A3Bo6ST0BdVpa89mrqtZtxDY1p0RbLXB5VepmTPZ5zi92zEz+Pet9NLSkb35bKYK1jexuOvLVQs5i1Qmo2RhuwNiMdiX1eOvFeS2orX0sWrtbXqryIpmUrD0QsGfErLbVZbe+yi2e8vDqaupq3Zq6iWc/+15d7VRabW6zv91U2mesvkAMY6Fy5V/zgp+ySCUFA46VAc54oEE9CDmBtB2MEcD0hR7pelR3y6UX9Xr5wPouftDwOVZXNkr0tLquS0e7Ibfr2rjIFwpo5m/Sj80+HBaqa20etfXUz7vfjqdPapbsPDDORua8bEg7D0rRFsGo491u+PIxq/wCkKm3NfUURdU0w3luPPZ3Dj7VkzaS2PzV6KMmGa8x0YyFjUEIKygQUDlBSgY8Fc5IKCgVA4hLa+nmUumtFm5iIySOi56Ut4vPQM+gZ7l6eKK4sPbb6RGPHvDXd7vdffKky18pLQcxwtPmR9g9PXxXn5Mtss72Y7ZLX6ugCuHCgVGwcoFElBWUDlQEFBQKBCBUBRJB8Rw6knk+Wc6K1HVz1bLZXOdOHNPNSu3ubgZwT0jr4r0NJqbTbu7ctWHLMz2bPJ1vb4Ldej5MA1k8Yl2RwackFUavHWmTj3V567WeACsqkgoEFBWUFZQY9lWuSEDlBWVBLcWiHR12jqSKZjZI9h0L2uGQ4ZIIK9bT7WwxEvQxebHG7FdQaAqaZ7prKTUQceZc7z2dQPyh6+1ZcujmvNOYU5NPMc1YdPDLTTGKpifFIDjZe0grJMTHVmmNuqAd6jdCgVAcoKRJQcQVlQHKCgUCFAcgcdyD0rXZLjc3DySmeWH5x42WjvVuPDkyemFlcdrdIbD0xpmCy5nlfz9Y4YL8bmD0NHvXpYNNGLmerZixRT7sQ15Nzuo5GcRFG1o6t2faVh1k75tvpDNnne7HllUnKBCCgUDlBj2Vc5VlQFAg8EJbU5LZed0/PAfmp3D7wB969HR/8cx8tun9Mwxi1azuljkkop9mtgp3ui2ZnEOGycbn93SCs9NRfHPZnmFNM9qcTyyyDVumL1EIrkxkLjxZWR7vvcPWtEajDk4svjNjv1cn0Rp24t5yhlfCHbwaaYOae45Hgk6XFPNePsThx26PIquTSobk0dzjcOhk0Jb+8CfYq7aK3tZXOln2l50ugb9F8RtLN/dzfzAKmdHlj6OJ093UfpDUEfxra8/ZkY72ErmdLl+n5/dz3OT6Pi7Td7bxtVV3Myue4y/pO6yfQDT16J/sur/wincZf0o7q/wBH1Zpe+v4WyYduB7VMafLP9Ke6v9Hai0Zf3nfRNYPS6Zn8VPhcv0/l1GDJLv0/J/dnn4eoo4h6Q5zyO7A9q7ross9dnUaa3vL1aXk8pWedWXGaTHERMEY9eVbGhiPVb8/lZGmrHWXoCj0nYMOl8lbIN4Mr9t/cDkq3safDzLvbFR51x1/BG3m7TSOf0CSYbLR2N4n1Kq+trHohXbUx/TD76Dra261VwrK6d0mGsYwcGtzknA7gp0l75JtazrBabTMyw/Ukwnv9fIDkc6QO5Ys89rLZmyzveXnAqpwVAcoEIHKDHwrnBRKgVAcgcUGw+SOc7dzpzvAEcg6ycj3BbtHPqhr0s9YYpqqEUuprnE0YxUOd97zvesuavZy2iGfJG15h5aqcLhlkgdtwSPidxzG4t9iRxO8cJiZh61Lqm+UuObuMzmj5L8OHrVsajLX+p3GW8e71YOUC+M+OaaXtjx7FZGsyfdZGov7u4zlIuA/SUFM4dRcrI1t/eqfE2+jsM5SZvl2xndKf4KfHT+l14qfos8pL8f2Y3/F/BPHf9TxXw+T+UeqPxLdCPtPKjx1p6VR4mfaHwk5Q7q8fB01NGfTsuPtXE63J9ETqbOjPrS+zDHlTGf3cYBVc6rJPu5nPkn3eZU3a41f9Yrqh/wD9CPYqrZclutlc3tPWXVAA3gAHqCr2iOjkqRsjk5j5nT9TUOHx6hzgeoNaPaCvS0UbY5t8tun4pMtezyc9UTS53Pe53iV5tp3mZY5ned0gqAhAqA5QKDHwrnBCBRJCgZlyWTlmppIicCWld3kOaR6srVo52yTH1ho087X2fHlJh5nVUrhwlhY/v3j3LnVxtlRqI2uxgFZlBQKBCBCJd6022ru1YKWgjEj+JJOGtHpK6pS2SdqprWbTtD2btoy62ukNUebniYMyc0Tlo7OkK7JpclY36rb4LVjdjveD2LKpcUhCClAcoKQbOsx/J/J+Jh0Uz5fvZPvXqYZ7Gm7X7/8ArdTy4f2ayZuAAXlRxDCpEqQIQKgKDHgrnChwQUEHAiXvaGn8n1bbHE4a6UsPXtNcB6yFbp52y1WYp2yQyHlZh2bjQTgea+FzSewjCu1keasrtVHmiWCLGyqCgKBQPQiWe8lVVTsqa2nfsieQNcwni4DiB7Vt0Vq7z8tOltHMNjStY+MseAWuGCD05XoTEbNjWF60FX0rnS25wq4sk7B8149xXm5NHaOa8wx5NPMc1YpLFJBK6KaN8cjeLHggjxWOYmJ2mNmbaYnlIQIQIUDjjhpI444KJ4gbQ1P/AEfoUQN3fBRQ4HXgFerqPJg7MfEN2TjE1mvLYSoCiSgoIEKBjyucEIK6EChDtWufyW50VQeENTFIexrwfcprO1qz8uqztaJbI5WoNq20M44RzFp7CPwW7WR5Yn5bNTG8RLWA6F57FHRXSgoKAoFBcb3Rva9ji1zTkEHBCdEu1UXS4VWz5TXVUuwct25XHZPUupve3WUze0+737Lrm6W8NjqiK2AfrTh4HU7p7wVfTVZKcTzH8rq57V+WXw3bTWq4Ww1TY+d6IqgBrwfqu/gVqjJgz8Sv7ePJxLx7tyeOG1JaKnbHHmqjj3OHv8VTfRbc45V2036ZYfcLZXW15jr6aSL6zm7j39Kx3panqhntW0dYdUH047ly5digi5+uposZ25mN7sjKmsb2iPmP8prG9ohtzUtl/LVr8kZPzJa4Oa7GQSOgj0L2M2LvK9nfZ6GTH267NWXW1VloqOZrY9gk+a4b2v7D7l5GTHbHO1oYb0mk7S6a4cEKAokoKQY8rnBUBCCkCd4weBHQm+3J0bc1zm46Ejqvqwz+OP5l6WojtYd3oZucW7U2dy8xgIQIQUFAUCgUCgoYSR7lo1VdrXhsNQ6WIfNTecO7pHirceoyU994W1zXqzG368tdcwQ3enNMXbiXDnIj38R3jvWymsx24tw0V1FbcWfar0fYbvFz9slEG1vD6V4LD3cPBTbTYskb04TOGl+avKtuibhbr7RzmSCopY5Q5z2ktcAM8Wn3EqqmkvTJE78OK4LVtDua7u9fbLnb3UEr2bEb3PGzlrskAAj9k9e9d6vJelq9n5dZ8k1mNnetF1t2sLfNR1kDRO1vwkJ34+s09veCu8eSmoptaHVb1zRtLX16tz7Vc5qOV2TGctdj4zTwK87LjnHaayyXr2bbOkFW4IUBCJUgx5XODlAqA5QUP+kPZtymJuPJadre4ULv3M4/0hejXz6f9noR5sLUoIxuXmsEdFA7kCECEFAqAhAoHKBQUCgoHeFA+1LVVFHLzlJPLC/OdqN2PH0qa2ms71nZ1EzHRn+hNQ3S6V76SslbLFHEXbZbh2dw4969DS58l7TFmrBktadpetddXWy3XGa31sUxdHs5c1gc3eM+nrVt9TSluzZbbNWs9mXWOsdN0rXS0rCZSOEVPsk9Wdy48ThrzDnvscdGA3u5vu9zlrZGhu3gNaPktHALz8uTvLzZkvbtzu6QKrcEIFQFBj6uckFAgoFQHs4oNu8mrm1ujn0rzkB8kRHUR+K9HS84dm/Bzj2akYC1oa4YcNxHoK85h6KQVlQEIFBQKgIQKBBQKCgUFZUDPOSuHanuFR9FrI/Ek+5b9FHMy16WOssa1VP5RqK4yZ+fLfDd7llzTvktKjJO95eV3qlwoFAgoKBQIQKgY+CrnJQIKBBQIKgbO5H580txgJ3iVrwOojHuW/RzxMNulniYYHf4DS3+5QEY2KuXA+qXkj1ELHkja8wyXja0w6OVwgoKyoCECCgoFQFAoEFA5QUCg2dyYsENhqqlwxt1Dt/U1o/Fejo42xzPy3abim7XFVIZaqeQnJdI52fTvXn29UsU9XzXIrKByoCCgoFAoMeBV2zhQKhJQIKBBQZ1yRVAZfayAn9LThwH2T+K1aOdrzDTpZ88w8vlDgNPrGvJ4TbEo72Ae1pVepjbLKvPG2SfljoPUqFRQ3KJVlQFAgoKyoCgQgQUFBBtTTx/J/J0JXbiaeWX7xcR6iF6WGezp9/3b8flwtWM3AZ4ry2BalLiCsoHKgUCgcoMeVzggpsKyoSUCCgybk3qOY1hRDpmbJF4t2v9qu087ZYW4J2yQ9Tlap+b1BST5wZqXZ7dlx/mVmsja0T8O9VHniWEArIzqBQKG5yiVZUBQOUFAqAoEFBxztlrnHoGVEja+ox+TOTxlM7iKaKA9uAF6mbyYNvtDdfy4dmrAV5mzCoKAolxA5QUoDlBj6ucEIHKCsqElB6Wmag0uo7XMOIq429znbJ9RKsxcXifl1SdrRLPOWOnBgtlRuyJHxeIz/tWnWRxEtWrjiJa039PFYWMgoKCBQKJUCoCgcoKBUBQfajiFRWU8BxiaZkf3nAJEbzEJrG9obL5UpubsdLAOEtQAewNJ9y9HWz5Ij5bdTO1NmsQvOYVApsKCgIRLgQUCgcqBj2Vc4UgUCCgpQkguaQ5ji14ILXDoPQU32G5LXdLRrqziiuLWCqwOcgzhwcPlMPSF6Vb0zU2s31tTNXaWL3jk1uNO5z7VPHVR8QyTzHgew+pZ76S0enlTbTWjpO7E6603K3ZFdQVMGOLnRktH7Q3LPbHevWFE0tXrDpscHjLHAjqXCFAoghAhEqBUByEQqIOlfzcLHyv6GMBcT3BNt+idpe/bdH324EFtGYGHft1B2N3ZxV1NNkt7La4b2ZvYtHW6wf0jc6hks0W8SP82OPr/wC1sx6euPzW5aaYK05sxDXGo2X2vYymH/iU2Qxx3F7jxPZ6O9ZNTmjLaNukKM2TtztDHAs6ghBQKCgoCESQg4gx8K1wQgpBxBQSRShKmucx4ewlrxwc04IPUehI45gZVaOUC/24COWZldCPk1LfPH7Y3+OVopqMlfldXPevvuyqh5UbfIAy4W+eA9LmESN9x9SvjWV94X11VZ6w7br9oW7efWMoC701VMA7xIyuu809uuye3gt1iHPyHoSvIdGKTJ/VVT4x4BwTutPJOPBY/mVpB58x+Ps1pPvUzp8P5KYwYvyXPzG0mN/Ov/zn4qPC4fyTuMX5J/NHRcf6QxnH0q9/ucnh8Mf7R3OH3/y4YtA0GNtlrJHDnPhT+9lRMaavXYmuCOuzkmutNW9hZRMc/HBlPT7I7juCeJw19Mf2TOfHXpDxrjymVTwW22gjiz8uocXH7ox7VTbWW/pjZVbVTPFYYjdLxcbtJtXCrknxwaThrexo3BZb5LX5tO6i17W6y6f/ADcuHJQIQUgQkigoCES4gx8K1wQgQgoIEIEJIrpUJKBQKDmAeIBUbCmgN+KMdibCgT0k+KDmy36I8FG0EKG7giVBAhAoKCgKBQKBQUEkUoHEGPq5yVAUCEFBBxBQSQhQlSDiCkCoCEFIKQhxEqCgIQIQUFAUCgQgUFBJCoGPq5yUCgVAQgoIOIKyoCESpAoHKBUBygrKBQKJUDuUBCBCCgVAQgUCgUFIP//Z;" vertex="1" parent="1">
          <mxGeometry x="120" y="548.24" width="116.88" height="110" as="geometry" />
        </mxCell>
        <mxCell id="xVaTdNUlve_QaKW05wNs-8" value="" style="shape=image;imageAspect=0;aspect=fixed;verticalLabelPosition=bottom;verticalAlign=top;image=data:image/png,iVBORw0KGgoAAAANSUhEUgAAARMAAAC3CAMAAAAGjUrGAAAAmVBMVEX///8AABmwtbi9wcMAABgAABsAAB0bMz5KWWHHy80nOkUAAB4+UFgAGiv3+fi1u71danAAABMAAAAAESQAJDPt8PDM0NF/iY/l5+jv8vIAESVmcXcACSDU2NlVYmkzRU+TnJ8AIDB4gYahqKsAJzMgNkKkq66Nl5x7hYqFj5Pa3+FYZm1veX8xRE+Yn6MLLDoAGCw6S1YAAA1UkruMAAAF70lEQVR4nO3ca3eiOhQG4MglRC5RCygIFG+AIBbt//9xJxG09jKdzqx1agff54OEFFxhF0IENoQAAAAAAAAAAAAAAAAAAAAAAAAAAAAAAAAAAAAAAAAAAAAAAEic37oFP0u4HpubTVqPbt2QH4OXmu6yKEop9fJbN+ZnqEydqSQMfc7zTN/hEBIh8ZycKMzT42Y8JSuLISjcmA99k86jomQaHZOSRrdu0s1tqRI4h6dTOazjPYmoeuMm3VrgMnKMh+fZgpbhZn/LBv0AT9ZwSMuXeeaKs1Byu/b8BMwhtRO8zI/0UaIvbtacn4AbjKTmVUU1KIh+372s70XETK8qAn1GNo83a89P4Hv125iUpLnvmHARk/11TEIZk93N2nNzvLbtJrMNw35xbEy7ERXRnY5m1TgzfyGL73TgNtJ/ueHqr//Ub5/FZHCvMRlcxvRkOM6y8cssYkLIzHLS1HkZ5N9vTPRzTNYWE+P7gNF1V3G3MVEuMYm74b256U7B9xuT87Ez1dvrJ+RJn7YFxGSodRG4nIkQk0Qr2sJC7y6dICZk0/hy4m+yruJtTLgf+Hcx2le0c0xGrimCEpru+abXq5gET8xYHpYZWwdvv6J3FG16Ls6oKCZ6fZ6/ikkwppZj12VtO3S+8r+7kd/sKia1IzfWvVw4eYnJEx2cx7dcZfSgfGcLv99VTPaG/GTNuc+4xKS29tdXrFWDFt/VvJt4iUnonS4jlXrVVZxjUtI390p921qTHssvNy0qehq0qfqlj227X3XA3q7Es3mfb3UocT4dStPiUMiS4tRdxeLwJEvmMny3VuCYH3xXX6y8WB9Ierycy6nVToR4GYtqXf/oOClob/vZJI1T5XferMPl2Sn07Fu09//Ht9Yf3+4L63jibMW5SOvlKGXoUfang9LQiB9nLD6SUS9/DAVx8+cPaW1juU5p5dX50kKvLKzh7xd6yzueJu6jr5e/WfRfNNP/okfoRv6N3c+Y5NZfjNDTRg5WAr2uBn08dkgas/MwfrqdzWZia0dyuv2k9xxRVnFxBk8+uS/0L+OreL5oiytn7sg7oeYyjufL9JOVSp06lrYmkfZ+dNsLyZ7uTz8BZ06lUNHl7lM/CMxPh2PJrC4r4jvvfgT1RnFwbcaY6XDVPTLWiF2EmwZ7ZfHBerM+PxhZjQ3JJtUmE1P5xNbOeKWxpu/Wmro9Hdp/URU3b0e7YXOoPlz2bqjUeB2ByqB3n7yhzJ3r6wW5F/f2QsHXTQ2advcw/Dylxl/8KOgfXhyolj1Gu0yn8+Iubnx9hbqyDa+xkQb2Gke6IAAAAAAAAAAAAAAAAAAAAAAAfFmets8B5yyNkq4wFlVBNJY4qaL0WHJRUafpts1pWc3Ex5pxspaL7PLkKOujvqRn8E37uPzuOSrMiUrIeDJemJpC8ni3Engwt5VC3xHemPnabd8la4pJPrEJyZrtalWPKm1MyOi5LzFRnK3MNs81uUGZSZTTu0/2zuVNQorMxC6WZPo8Etv9cErB2B+JMpEpTWaXW1xqKvc+y+H4p9hHHm8JYZ7c2EQhkS4LVS4zsIOq8kliZU+JOHRCpymG3YN9e6bMT3uXaYplKpmssK/jvjxjXlk5iTbh5R8ugtMVlKWjac/i+FD38SRTRMDs+aRpD480W3qn18bsm4GmPYgdaug6vXmZQ+mu1dlcIcfTiyyqEdm5shAoRKFKEARip+FizpxUxCeBardps+lyNdTaY8cXC8kqtunNw6FuYzRZk5IylmcfZpDFqRsZx5f+pIj56b0W6kNweblDKvrYrcygvexeZNf0JSYjTaYQbGnibww1mU0WJPSMUVLqpehPipFA1MnKrxj1K/0xCKL2dSDmUew+jVMRM1PFMrLuselLAlzpyv9u9aCQJB1MXJkTWx31iSvGH8OD487dh4SsncmkEYeM6k0myzY125YdrCrOvbul67q6TGqKjL7sJ6Qdg516hKDqtqor8BNZqrpEpuCc0BSG57Uuy/BevrMAAAAAAAAAAAAAAAA+8R/SMWovpoQ6zgAAAABJRU5ErkJggg==;" vertex="1" parent="1">
          <mxGeometry x="400" y="550" width="160" height="106.48" as="geometry" />
        </mxCell>
        <mxCell id="xVaTdNUlve_QaKW05wNs-9" value="" style="shape=image;verticalLabelPosition=bottom;labelBackgroundColor=default;verticalAlign=top;aspect=fixed;imageAspect=0;image=data:image/png,iVBORw0KGgoAAAANSUhEUgAAAywAAADaCAYAAABErcYEAAAAAXNSR0IArs4c6QAAAARnQU1BAACxjwv8YQUAAAAJcEhZcwAADsMAAA7DAcdvqGQAADNYSURBVHhe7Z1JjOXImd99tQ/GAHPTwW4YMAwDgjEH39yCAM9FEHywINgy5mLAFow2hB6jIQse36Y1HgiCrQXTQqunNd3T+1pr175vWWtWVe6Zlfteue/byzXMj/z4HsnkWyOqivXe7wf8Ufweg8FgvAjy+5PMev/AAAAAAAAAZBQMCwAAAAAAZBYMCwAAAAAAZBYMCwAAAAAAZJaqDcvlyzfMyMiYRnZ8+eUJs7q6plHt7O7umg8++FwjO2Zm5sypUxc0sqO7u9fcvn1fIzuamu6ZJ0/6NbLj5MlzZnZ2XiM7/v7vPzN7e3sa1c7Kyqr56quTGtkxPDxqrly5qZEdDx+2mpaWDo3suHjxmhkbm9DIjs8/P2bW1zc0qp3t7R3z0UdfamTH1NSMOX36okZ2dHU9MXfvNmtkx82bd01v74BGdhw/ftbMzy9oZMd7731iDg4ONKqdpaVlc+TINxrZMTg4bK5da9LIjgcPHpu2ti6N7Dh//ooZH5/UyI5PPz1iNje3NKqdXC5nPvnka43smJycMmfPXtbIjo6ObnP//iON7Lh+/bbp7x/SyI5jx06bhYUljez4wx8+1iU7pD3SLhdIP0l/ueDevUf+9+iCs2cv+ePLBR9//LU37rc1qp3NzU1/HrpAzgvnz1/VyI62tk7/vOWCq1dveefTEY3skPP70tKKRrUj15v33vtUIzvkOnjixFmN7JDrs1yny1G1Ydnf33dykRWkLle4qksOzV1dB876ymVdwXeogSXZ/A4PvLqy2u/u6nKF236v/7njiux+h8ydSnHb7+7qctdXzJ1KCb5D5k6luO13d3W56yvmTqVU2u+8EgYAAAAAAJkFwwIAAAAAAJkFwwIAAAAAAJkFwwIAAAAAAJkFwwIAAAAAAJkFwwIAAAAAAJkFwwIAAAAAAJkFwwIAAAAAAJkFwwIAAAAAAJkFwwIAAAAAAJkFwwIAAAAAAJkFwwIAAAAAAJkFwwIAAAAAAJkFwwIAAAAAAJkFwwIAAAAAAJkFwwIAAAAAAJmlasOysbFpdnZ2NbJjdXXN7O/va1Q7BwcHZmVlVSM79vb2zPr6ukZ2bG9vm83NLY3skHq2t3c0smNtbd0/The46ncZBzIeXCDjU8apC7a2ciaXy2lkx8bGhtndrd+5s7src2dDIztk7mxt1ffcWV5e0SU7ZBxIu1yws7PjeO5sa2SHjCuXc0fGvS1u586us7kjfS5974LNTbneu5w79ucswdXckfa4nDvSXy6Qc18W546Md1dzx9X1PqtzJ8iV3c0dF9d7YXnZXa7sau7I9bmSXLlqw9LUdN9MTDzVyI7Tpy84GWjScUeOfKORHfPzC+by5Rsa2dHfP2QePmzVyI7m5hYzODiskR2XLl03CwuLGtnx9dcnnUwkGfhnzlzUyI7x8Ulz+/YDjexob+82XV1PNLLj5s27ZnJySiM7vvnmvJPEUk6oR4+e1siO2dk5c/XqLY3s6OsbNI8ft2tkx/37j83Q0IhGdly4cM0sLi5rZMeXX55wcvGXJOLs2csa2TE6Om7u3m3WyI62ti7T09OnkR03btw2U1MzGtlx8uQ5J0mJmOrjx89oZMf09Ky5dq1JIzuePOk3ra0dGtlx795DMzIyppEd589fcWY0vvjimC7ZIe05f/6qRnYMD4/5/eWClpYO/3t0gYwrGV8ukPEu494WMWQyD10g54UbN+5oZEd3d59/3nLBnTvN3vl0QiM75Pzu4uaIXG/kuuOCxcUlc/HiNY3skOvzgwePNSoOr4QBAAAAAEBmwbAAAAAAAEBmwbAAAAAAAEBmwbAAAAAAAEBmwbAAAAAAAEBmwbAAAAAAAEBmwbAAAAAAAEBmwbAAAAAAAEBmwbAAAAAAAEBmwbAAAAAAAEBmwbAAAAAAAEBmwbAAAAAAAEBmwbAAAAAAAEBmwbAAAAAAAEBmwbAAAAAAAEBmwbAAAAAAAEBmwbAAAAAAAEBmqdqwTE/PmvX1DY3sGBubMLu7uxrVzsHBgRkeHtXIjq2tnJmcnNLIjpWVVTM3t6CRHXNz82Z1dU0jO+T4crmcRnYMDY36/W/Lzs6uPx5cIONzZmZWIzsWF5fM0tKyRnZMTc2YjY1NjewYHR335s6eRrWzv7/vzZ0xjezY2toyT59Oa2SHzJ35eTdzZ3bW3dyZmHhqtre3NbJjaGhEl+zY2dkx4+OTGtmxtrbuzZ05jexYWJC5s6KRHTJ3NjfdzZ29Pfu5s7e3b0ZGxjWyY3PT3dxZXl7x+n5RIztmZ+f8MeGC8XGZOzsa2TE46GbuSHtkTrtA+kn6ywXy/cn36AIZVzK+XDAyMuZfM2yR+Sfz0AVyXpDzgwvkfCXnLRfIeXR93dXcmfTP8y5wdd3J5badzR25Pst1uhxVG5a2ti5nk7Kp6b6TiSQXjqtXb2lkh5wkmptbNLJDBllPT59Gdkg9rgbHgweP/YTQBVeu3HRyApNE/vbtBxrZISeK9vYujewYGBj2TZkLWls7nBnYW7fuOTGdcsPg+vUmjewQY/fwYatGdoh57e0d0MiOrq5eZzch7t9/5Mz8XL58wzP7GlggBv3OnWaN7JienjEdHT0a2dHfP+QnOC54/LjdM7BukvCbN+86MZ2SQNy4cUcjOyRJevSoTSM7JBHs6xvUyI7Ozh4vGXRjpO7efejM/Fy6dF2X7JD23Lv3UCM7xBh0dj7RyA75/lwl9DKuXCXhN27c9m8u2iLzT+ahC+S80NLSrpEdcvNOzlsu6Ojo9m/wu0DO7y4eFMjN5cuXb2pkh1wH5XroArk+d3f3alQcXgkDAAAAAIDMgmEBAAAAAIDMgmEBAAAAAIDMgmEBAAAAAIDMgmEBAAAAAIDMgmEBAAAAAIDMgmEBAAAAAIDMgmEBAAAAAIDMgmEBAAAAAIDMgmEBAAAAAIDMgmEBAAAAAIDMgmEBAAAAAIDMgmEBAAAAAIDMgmEBAAAAAIDMgmEBAAAAAIDMgmEBAAAAAIDMgmEBAAAAAIDMUrVh6e8fMktLyxrZ0dbWZXK5bY1qZ39/3zx61KaRHWtr66anp08jO2Zm5szIyLhGdoyMjJnZ2XmN7Oju7jXr6xsa2fHwYas5ODjQqHZyuZxpb+/WyI7FxSUzMDCskR0TE0/N06fTGtnR1zdolpdXNLKjtbXTbG/vaFQ7e3t75vHjdo3sWF1d8+ZOv0Z2zMzMmtHRCY3sGB4eNXNzCxrZ0dX1xGxsbGpkR3Nziy7ZsbW1ZTo6ejSyY2Fh0QwOjmhkx/j4pJmamtHIjt7eAW/urGpkR2trh9nZ2dWodnZ3d01LS4dGdqysrJonT9zMnenpGTM2NqmRHUNDI2Z+flEjOzo7e8zmppu58+DBY12yQ9oj7XLB/PyC318uGBub8L7HWY3skHEl48sFLS3t3rjf06h2dnZ2/HnoAjkv9PUNaGTH1NS0f95yweDgsH8+dUFHR7d/nrdFcjVX152NjQ3/eugCuT7LdbocVRsWmZCuki452O1tN4ZFEjgXSCIvF0cXzM3NO7twyAlMTogukOOTweYCOem4MSzbzga/GOqhofKDvxLErLhKuiQRdHXhkIusnPRtEcMiNw5cIGZfTJkLxJyPjz/VyI7R0XFnSZdc/F0lXXLxd8HWVs6/CeECMfvDw2Ma2TE5OeUs6ZIbEK7mjlz8xWzYIombq5ssYvblZqAL5EaZ3GhxgdwoW1hY0sgOuRG4uWmfdAmubrJIe1zdoJR+cnWDUr4/+R5dIONKxpcL2tu7/GuGLXLDQOahC+S84OoGpZyv5LzlAjmPLi66ubkv53c5z9siuZqrmyxy487VTRa5Pst1uhy8EgYAAAAAAJkFwwIAAAAAAJkFwwIAAAAAAJkFwwIAAAAAAJkFwwIAAAAAAJkFwwIAAAAAAJkFwwIAAAAAAJkFwwIAAAAAAJkFwwIAAAAAAJkFwwIAAAAAAJkFwwIAAAAAAJkFwwIAAAAAAJkFwwIAAAAAAJkFwwIAAAAAAJkFwwIAAAAAAJkFwwIAAAAAAJkFwwIAAAAAAJmlasPy+HG7mZ6e1ciOGzfumM3NTY1qZ29vz1y8eF0jO5aWls29ew81smN0dMJ0dT3RyI7OzidmfHxSIzvu3m02y8srGtlx8eI1s7+/r1HtbGxsmps372hkx/T0jGlp6dDIjr6+QTMwMKyRHY8etZnZ2XmN7Lh2rclsbeU0qp3d3V1z+fINjexYXFwy9+8/0siOkZFx093dp5EdHR3dZmLiqUZ23LnzwKysrGpkx/nzV83BwYFGtbO2tm5u3bqnkR1Pn06btrZOjezo7R0wQ0MjGtnx8GGrmZtb0MiOq1dvme3tbY1qZ2dnx1y5clMjO+bnF82DB481smN4eNQ8edKvkR1tbV1mcnJKIzuamu6b1dU1jew4d+6KLtkh7ZF2uUD6qb29SyM75PsbHh7TyA4ZVzK+XCDjXca9Lbnctj8PXSDnBTk/uEDOV3LeckFra6eZmprWyI5bt+6a9fUNjWpHrjdy3XGBXAfleugCuT53dPRoVJyqDcvc3LwTkyHIBJeEyRb5EsbGJjSyQyaSK0MmicTCwpJGdiwsLPr1uWBqasbJBVuQfneRdMk4cHVhFPPjKrkRY+cqQRWzsrm5pZEdMsHFqNsiZtOVEc7lcs7mjiQSYoBcIBfr9XWXc8f+gi3IDQ0X7Ozs+kbDBRsbG15/uZk7cvPH1dyZmZnzDHoW544bIyw3H+QYXSBzR/reBTIWXCRKgoxRF8muMDo6rkt2SHtczR3pJ5dzx5W5C+aO/c0tQa4VLm5QyvxzdRNJzguzs27mjpyvXM0dyUEkF3FBMHfsc2XB1XVHroNyPXSBXJ8lxy0Hr4QBAAAAAEBmwbAAAAAAAEBmwbAAAAAAAEBmwbAAAAAAAEBmwbAAAAAAAEBmwbAAAAAAAEBmwbAAAAAAAEBmwbAAAAAAAEBmwbAAAAAAAEBmwbAAAAAAAEBmaWzDcrBlzOz/NmbwXxrT+0cI1Yf6/tiY0T81ZuUzHeju2d3dMw87B83xSw/MZ6eaEKoLfX76trnQ1GaGJ2Z1pLtnR+ZOhzd3LjJ3EKpFJ680m7YnIzqjoFFoXMOy+9SYoX9lTI/XBZ4Oev8xQvWhJ/8oP67NzP/UAe+O9c2cOeEZlQ+OXff16bHLCNWFPj52NT+uxZC7Zm1jyzcq4T4QQrXr3M0Ws7e/r7ML6p3GNSwTP/QTutzofzQLyz1mbn0DobrRytzXZr/3jwPTsnpEB70brtzt8C8W105+aebP/MJsnv1LhOpG/ad/Zz47ftkf42NP53XUu+HynfZYwoUQstPdlj6dXVDvNKZh2RnxE7m9/n+WmuwhVA9amfssMCzj/04Hvj2r65v+ReLo8bOpyR5C9aDeU2/74/zqvU4d+fYsr27EEi3RyYv3EEJVKjqHPjx+nacsDUJjGpb1C34itzX2n1MTPYTqQ6uBYRl4RQe+PeNTC/5F4tbJz1ITPYTqQWtnf+6P82MX7+vIt2f06Vws0Wpre2LM6hJCqErdvh9/Urm4vK6zDOqZBjUs5wLDMv5fUpI8hOpHgWH5Jzrw7RmbmvcvEE0nP01N9BCqB62ffdMf50cvODQsk3HD0tXZl5qMIYRK615zZ2wuLSyv6SyDegbDkpLkza2Pml9979vm1bf6U9ZlVN3vmldf+aH5VXfKuqwoI21sfeuH5lvfe9e0pqyrN2FYMqwP/8x855VXzVsfpqx7xup741XzrVf/zPSlrEMYFoSyLAxLY1K1Ybl5844ZH5/UyI4TJ86ZtTX7R3nyX6x+8cVxjSqgTgzLsde/bb71+qUgxrBULAxLgZ2dHfPVVyc1Ks+zNCxnf+SN5x+9lrqudr1mXnvl2+a1X6ate/6KHeNLYViy1X/PS5UYllxu2xw58o1G5cGwIORGScNy/tJNnWV2dHU9MS0tHRrZ0dR034yMjGlkx6lTF8zKyqpGtXNwcGA+++yoRnYsLCyZc+cua2TH4OCwuXfvoUbFqdqw5HI5s7e3p5Edm5ubfge6YGPDS84qpU5eCXvpDEtGhGEpIPNvY2NTo/JgWOyEYXk5VIlhqXbuZN+wnDU/8b7rb3n67t90p6x/Dur8vfnuKz8w73SmrLPRqTe843rDXElb9yL1rI63EmW1TypQ0rBMzSzqLLNDbuBtb+9oZIfkynIz3QWbm1tm39F/LLAueYEDpD3SLhfs7u76N4DKUbVhqQuqfcJy+qf+STxQJaag39/+x6fD+JL5sbdtPC7U4yfQYf3JRNo3IuG+PalBiW0jn4WG5a1IW0Mzo/INTso6+fzV138a7KeiRD44vnxdr/zUHNN1gYl6N7K+sK5yU6X957Up2tZa+ilaX7Duh169alj8bSLtO/S9vfwqZ1iqpVLD4ifm4XcRS9C/bb7zxs+03M/MW68G6/0EOlr+l98333r1++Y1WZ9P6rV8WO6V75uzkX3G6vCT8Xj50kl3ULZQJpmoS1wwF4f3FZbzpMeZX6/Hf+gYQ8PyhnesibKhUvtRP//Oj74f7Kci4xHti1fNaz+KG5bYfor0d9gX6WXrSy/2lbBLvnH4yam0dc9Oo3/zA++8+HszmrLuuakBDEusn18KwxIY2ec9HkuJV8IaEwxLSpIXNyxxc+GblwqSej+5DpNmb5tXvxeP83X4ZiiZ8IfJdiKBTiT8h5+wHI7DbeNPFYJ6Q0MWGJlo4l5asWNLrauwXz8O95tof3GpwYj2s0U/xY89MI9BnLZd5f3wMuhFGJb43fsg6c2blMhThXg5TYTDpFwMi/c9RU2GXz6ftCfq9csXDEyhrsqfEMTq9+r7zqvxON/WovuSOGF8Ek9RYmVDY5OIw21L9WNgGuKGrZTidQV9EjueYt9Dsv9Klq0fNaxhef1s6rrnJgzL8xOGBV4yMCwpSd5hw+JdlPPJcYWKmBJJmH982qtHY0m2owl+uOyrVNLsJ+2lDEvUDATtDpLxRGIe1hVpT9XHl1ewn5hhyZsDT9F2HWpjMcVNkKj2fjpcV9TARM1X3IjVh56/YfmLeMIuSiS5fvIscypxdz6W/CZMwWEFiXQsgU9NnCs3LNF2Shtf+6W3rcZSf3RfeaMk8o1Gkbb6x1HKsET7INrWhPEJ64q0p3KjkDB3nuIG5nDZQt2l+i9Ztn70Ig3Lhz/6js4PTRIlsfzeG+Yn3nnsW/nkttu848ehConnFf987pXPr4smxInt1KD4SXS+fFhX4RUxUSFhDer4ibePfB2a/L4TqUfK+205tH0JHUrgi7VBVLwPRLF9+20tn5wnTVvQl/E4/7qc39ZwHwnTEVsXqcPvJ/1MTEt4vH8T+TyyP1Hsu4k+AUsdF6VVsk+ibfMUHGe8j/P9n1pW1z0HYVgaEwxLSpJ3+I/u1bSEqiiplW0kaZaEOe1fKRMk09GJHyhcrwYg/NzbLprwV25YEu3PK0j4qzYsviEI6/DaFOmrw3WF/eAt12xYbPop2g+qiFmLGh+pI1auDvT8DcvrfoIb/55E0YQ+bjZCxZLwNMPifxbW96r5Tj4JP5yQF1SFYfHLioGQ+tL+lTKapOfbUWhPzJSEn3vblX7CUlgXb2uwHN+HKOiT6gxLSh9EzE/+SY+voF+LGpaSZetHmXrCoslhNFmPJ9ZBUhkmjUFSWkhg/VgT3bTtwnr9dfmEOF5n0IawTk1ik8mz18awfJhkh3VH2+CXL6aYYSnVhtJ9EJQNk3FtbwWGJdh/WM4zS9/7QTzO7z/x1CFlf/l1sWNK9HNobMLj0Di9Xu3HsKz2eb5sOZXsk+ixJcsmjrVk2ecjDEtjgmFJSfJK/i9hfoJbWWIbJMBewhy5m//jt7ztI08gpEzqfkTJBD8Rx8zBITMQTdSDhL9Ym2P1lFW6mYgZlufxhCWqkv10uK7oE5ZC30h/1dfrYKJMPGFJyE+2E4l8/vOihiVpSuJx8QQ+JVkvIakn+mTFf9LyhpekR55GSJl0c+QpaUIScaydJQ1LcHzF2l38eNOU7Lv4E5ZkXfE43n+ly9aPsmdYSiWEQUIZMyz5RD6eIAdGIpJsRnQ4kY6WixqChDkQJduYiGN1l1J0vyXbEH4WqnQfVJ5UR5Jx2b9Xx5XXNZY6wmOILvtKmJSo/H0XjqN0P8fNgRxH7Hj98nocFR9ToGr6JBgn4bp4m0qXfT7CsDQmGJaUJC9mWFKNQCVJd5gY/9C8GpqB08HfssQSb/9pRSFR9rcJY3/fBaPhm4HIvis3LMkkPW4sYvWUVZDg58vr05bwmFLbGO73UBuL6bDJsOmnWNmw/ZG+CNbHP6sXPX/Dcvh1Iz+pDeOIEUktFya/RQxLfH0kCU+UL9RdnWEJtvPMVGQ/8rcsMYOStq8w1icQsQS/JsNSuh9j9VSgWBvDvozWFe5H21+oO8WwFC1bP8q8YfE/8/re1w/Md71zWrFkPWkWggSzsG1qIn1ony/AsJRsQ7g+rQ9S2hdN9MsoNAnS5rR/pYx/PPl9FxSu97+D8HP/KU0thiU4jmj9gYr1TymV65P4vr7rtblQd9KwlCr7fIRhaUwwLClJ3qEnLJqUh4ol0qWkiXS+fJGEPZ8w+4qvD5LvQMFTgEJinm+XJNplDEuyrmjy739esWHxFO0Pb7vo9sHyT/19J/djZVg81dxPyfXyv49FzUnye6ojvQjDIvITW+3vfKKsJqNgHtJNiJ8QJ0xBbL3I2yaZtAdJua6PbBu2pehTkag0Cc+XPWQqAsX3FV8fPXb/aY3/r66PHmMZw5Ks69AxVWkUYu36kdeOpPEQeZ+dTTNK3jq/T8qUrRdl27Akk894XM6wROWX1XWlE+noPpL795RsYyIu1YaYovutqg2l+6Cq5F7KRp+sSDte/71Xf6QtUqbY8STbnYgrNywF8xSsS6iaY/JUsk+SdcXihGEpWfb5CMPSmGBYUpI8VLuqNj+ZUOVPzV42vSjDgtDLrJfBsOSTT3998WQ9miCnrtM4bioShsDfR5hYJ81CuL54EluTYamgDcX6IF5Wj7vSpFrb8N3vheW9hF2eksTan0ji/W00ji5764J9F9pSjWFJ7ccwTqwrq1J9ElunfZuvO61Nxco+H2FYGhMMS0qSh2rXS2lY5IlRHb4OJsKwIFS9XqxhCZNJTcDTElP/s6CMJO1RIxJdFqUZkfy2kXoPm4ogUQ3L5hPWpJEQJduYiGszLKJibfBUog9EQXIfrP/u62949VaaVGsfJfosdrwiNSb5fUTWh9+f6Cen0s2N3z/lDIun6HFEDUfquCij4n0SHRfePk7F2xUbj2XKPg9hWBoTDEtKkleREq+JxfUS363X16PSjyv+mlWaKjIsGeq74FWx+ny6IsKwRBR9peyQDr/29dIo+ppWiqKvmKHK9KINC0KouDAsjQmGJSXJQ6hehGFBqHphWBDKrjAsjQmGJSXJQ6hehGFBqHphWJ6Roq9xHdJzeK0o8RpXUrFXzl4qRV/TSlHkVbl6EIalMcGwpCR5CNWLMCwIVS8MC0LZFYalMcGwpCR5CNWLMCwIVS8MC0LZFYalMcGwpCR5CNWLMCwIVS8MC0LZFYalMcGwpCR5orWZvzUbT/8yVauzH6Zu80zUdNy88Zdvezpurqetfxbqv2refJ77Q89ML8aw/NK844/ZUL81d3Xd6NtvmTd+/ctE+Rr0wW/NG7/4lRlNWxdKykT2nf8sv5208y1z8qvkchl99Svz8+jxuTieSuTvN3E86JkIw4JQdoVhaUyqNiy7u7tmf39fIzt2dnbMwcGBRnZsb+/oUgWUMSwbkz8LEr0SWp/+f6nbutb19982b54YSV33zOSbJAxLPcgfr2UMSzVzpxLDcvfX8STej8uZi2rlwrD4BkBNSnQ5Wj4pNSvvfBB+9tfm5C+ek2lJOx70TFSpYalm7mBYEHKjpGGZXVjWWWbH3t6eLxfURa5cAmnPzs6uRnZIP+3ulu93L5upjqtXb5nR0XGN7Dhy5JRZW1vXqHbkQD/55GuNKqCMYdkZ+jcxc5Km3Oh/SN12bv2R+Z2X0PyuKYh7Tnxk3nj/kbc8Yo78xvv8hDy9CO7MhmWKyd82VjaoO/gsNBRa7/tiMj4yR/rjdRSUUs5/kpKsL7IPr91B+4/7n7356ZnYk5cXYqZQVfLHawnDIievzz47qlF5yhuW/+Mn8D9/+69T1kWfsOgTjbclCZfxJmah8GQm3D4o/6vAFMi60BgcelKi66Omo6RhUaMh2/ziN+bz/LKsS2tbsH3SjPmKmZ3i2xZrZ3CMv/XX+cetpigoF/ZFZNtoHyQ/0/2/82uvTsxNzarEsORyOfP558c0Kk/FhqX/uvmr8HvN66h5lFY2okfvvW3+6ni/t9xvznjjNFhOL1u1bh2Ntcdp3SU0fdy7/rz3IHUdalwlDcvZC9d1ltnR3t5tHj1q1ciOGzfumKGhUY3sOH78jFleXtGodsRkfPjhFxrZMT+/aE6duqCRHf39Q+b27fJPs71spgF5gYbljd9cNT1SrsKnGAVTEGwfGgS/Xr8urdffR3odgZLlpJ0Fg1NopxdH2haYpqg5CreJb4+yKX+8Pu9XwqIJd+IpSNyweOs10faNgCbYfhndzl+OmQF9upEwHvknHlEjE03oowrXR43GIdPhldO2FdoT7OuwGYu2ofS2ae0MjrFgLkY/+GXQvkS54Hi0XKy90XYF+z/cRlSNXugrYb5h+cic6S18JmakdOIeNSmODYtvVqLteWDe9cbY8zAt5Y8bNaJ4Jawx8bKZBuRFPmHJP1WpLOEvGJZE+fzfmcSNTHElysWeroRSY5I0LKHJ0tivQ7aPfI6yKX+8vsA/ug+MiKdoAh8xLGECX/jci5PJfPi5J6nPT8bzZdQgxKSJfDTBDxU1ACUNS7gcrpN6KjUsadsWb2fB1IT1hdtpuTTDEj0OT8X6FdWmrBkW3zT8+pKZ7r3krSs8bQmfqvhPIvzxItupYXnvaP5Jzbu3CnUVykZMh1//UfNufr56+/LLFzE/vonRdmjbzoi5iG3ryW+vfp5vd1Dnu1778kbIry8sp+2NfBa2v2zbMTcNIQxLY+JlMw0IhiWyfbKcpxKGJTQq10PjEn6OMil/vL5Aw+Irn7Q/K8MSMQhRRRP86Gdhoh81KdHloqajilfCDm1bvJ1JwxJ92hRrb/R4op97wrC4VXafsEiyH66TJx3hctRYBMuhcfCT/NBERI2GPikpmINovaFJiC5HFdm3GougTLQd0fZFX+/S9kXMxaNbheVCucQTlorajhpBGJbGxMtmGpBnaliixiBYjhqWtNeuDtdRUKWvhJU3D8lygbE6XJ+3rpRh8XT9fc+s/IbXwV4G+eP1uRqWX/gJc+wphCTtmlzXZFjypiOyTb5M8HQjtm00qc9vq4om+lGjcch0FI4hZij8clFDkNh/0W2LtzNWv6e8KdPl/Lro8cTaG33yg2FxoRdvWLzvPabCUxVJ6H1DIE8vUp+ERJe9dZLQR81L1CjoE5q4GQi2r8qwRJ6q5PcRe7oSPY5E+0L5bdByKYalsrajRhCGpTHxspkG5JkaFk3y/RPvR+Z3XnIfNSyS6Icn5cLTluKK/2F7YDKC7UOzU6th8RR7LSxinsLPvXanGRbf0CQ/Q5mUP15f5N+w+CqYhoIxqcKw/OKtQn0pZcK6gn1FnmJEE/xQadv58eHln3v7PVRndLtQebNSWJe+bXS7wudJwxK0Oyj3ztvSl1GTEtlfpFyhDcE+MCx2ytwrYVGpUXkUGhf/82dlWEqZCy0fqV/WxQ1LmpFI1hnEaW3EsKA0YVgaEy+baUDKGJbtke/HzEmatsb/a+q2xVWpsci+4iYKZVn+eH3Rr4RZ6FAy/1xkk/RjGOpBmTYsnh6955mV/KthoqgJSBiCqKGIJffJ16rSDEu4LrqvYLtY/fn10X3Hy/mGw29Hon2x/QXLaYalsrajRhCGpTHxspkGpIxhWVq8ZXYH/8Qc9P5RquQJzOJyd+q2xVXEsPivX3kn5UOq5ZWrYB+p9YWvolkprL/8q2woG8Kw1CIMS6Mr64bFT9IjTzVEfnLvb5cwBImyvnHQ60LcdBQxLKLE610Fs+HJ31YMlK6Ptiu2Xbz+aB2FNnntP15ob/h52JbybUeNIAxLY4JhSUnyEKoXveyGBaEXoRdqWCpQ/nWolHXPXRgG9JyFYWlMMCwpSR5C9SIMC0LVK7uGRV+ZypJBwLCg5ywMS2OCYUlJ8hCqF8k4X+h41UzPLTlRe++of4HAsKB6lhiW3x+5Zf7bJ73mL87OOtH/OD5hfvZJSz7JsnnCglAjC8PSmGBYUpI8hOpFu13/MHZidyUMC6pniWH584/bzb/921HnesczQjKHMCwI1SYMS2OCYUlJ8hCqF8k4b771v8yt5h4nOn+rFcOC6l5iWN78vDnVcNjoP73fm0+yMCwI1SYMS2OCYUlJ8hCqF8k4529YEKpO4d+wfHqu2cyu7zlR6+BsLMnCsCBUmzAsjQmGJSXJm1ufTPkviIP/0jf8sUf/BxX1vwqOLpdU8r8wdvJfDSNUXBgWhKpXdv/oHiGEYWlMMCwpSV4lhkV+PDE0HNHl4gp+pb7w6/ZBzA8womcpDAtC1QvDglB2hWFpTDAsKUleWcMSeVLyuy8iy9664GnLVb9s7ClK/1XzZskfgwwMTFBXoVxQ3/HCurwxipaPGiHdRj/PH4O0+TdePdIunuw0jDAsCFUvDAtC2RWGpTHBsKQkeaFhCZP+qMo9YQnMQmg44k9VUo2Er/jTm8BcXDU9+W30l+UjpicwMmo8IuUDMxX+En1k//7ntfx6PnqZhWFBqHphWBDKrjAsjUnVhmVxcclsbeU0smNmZs7s7e1pVDsHBwdmampGowp4hq+ExYyErjv82lfh6UhQX/xpSaCIMQnNiF9OTYdvXqJ1BCq6/5iRQY2icoal2rmDYUGNoEoMy/7+vpmentWoPBgWhNwoaViGRyd1ltmxtrZuVlfdmJ+lpWWzubmlkR2zs3Nmd3dXIzuePp3WJTt2dnbM3Ny8RnZsbGya5eUVjYpTtWFpbm6pzhyU4MqVm35DbRHTc/bsJY0q4IUblkCFshEjklYmzbCEZXwjIsYlMCMYFhRVOcOys7Nrzp27olF5MCyoEVSJYdne3jEXLlzVqDwYFoTcKGlYbtxq1llmR3//kOnu9ualAx49ajOTk1Ma2XHtWpNvpmyRG5SnT1/UyA4xGDdv3tXIjrGxCdPa2qlRcao2LHXBszYsFb6SJWWDfQR1541GxFwUMyyFbb3P/actus+YMUnuH8PSaCpnWKoFw4IaQbwShlB2xSthjQmGJSXJq8SwBMYkiA8t/8YzE/5Tj4gJiWyTV2RdaC6CdQVjE9SX9oRFTY5uE7YruZ/8MWBYGlIYFoSqF4YFoewKw9KYYFhSkjwbxQ0GQi9WGBaEqheGBaHsCsPSmGBYUpI8G2FYUJaEYUGoemFYEMquMCyNCYYlJclDqF6EYUGoemFYEMquMCyNCYYlJclDqF6EYUGoemFYEMquMCyNCYYlJclDqF6EYUGoemFYEMquMCyNCYYlJclDqF6EYUGoemFYEMquMCyNCYYlJclDqF6EYUGoemFYEMquMCyNCYYlJclDqF6EYUGoemFYEMquMCyNCYYlJclDqF6EYUGoemFYEMquMCyNCYYlJclDqF6EYUGoemFYEMquMCyNCYYlJclDqF6EYUGoemFYEMquMCyNCYYlJclDqF6EYUGoemFYEMquMCyNCYYlJclDqF6EYUGoemFYEMquMCyNCYYlJclDqF6EYUGoemFYEMquMCyNCYYlJclDqF6EYUGoemFYEMquMCyNSdWGZXR03KysrGpkR2/vgNne3tGodvb3901X1xONKgDDghpE5QzL3t6+6e7u1ag8GBbUCKrEsOzt7ZmeHs90VAiGBSE3ShqWzp4BnWV2zM7Om+npGY3sGBubNMvLKxrZ0dc3aHK5bY1q5+DAmM7OHo3s2NzcMgMDwxrZsbi4bCYmnmpUnKoNy5Mn/WZhYVEjOx49avO+hJxGtSOG5d69hxpVAIYFNYjKG5Y9c//+I43Kg2FBjaBKDMvu7q558OCxRuXBsCDkRknD8rClU2eZHZI0y015F4jJmJtb0MiOlpYO3yDYcuA5lrt3mzWyY93LL9raujSyY2ZmriLzU7VhqQswLKhBVM6wVAuGBTWCeCUMoeyKV8IaEwxLSpKHUL0Iw4JQ9cKwIJRdYVgaEwxLSpKHUL0Iw4JQ9cKwIJRdYVgaEwxLSpKHUL0Iw4JQ9cKwIJRdYVgaEwxLSpKHUL0Iw4JQ9cKwIJRdYVgaEwxLSpKHUL0Iw4JQ9cKwIJRdYVgak8Y0LFvNfiK3M/ynqUkeQvWgxaXHgWEZ/tc68O2ZXVjxLxAXThxNTfQQqgdNnfm//jg/c73y/7a4HNNzy7Ek69Sl+6a7sx8hVKW+PHM7NpfWN+1/HgOyT2MaFmHwn/vJ3OrM36Umewi97MqN/jAwLHNv6qB3w5Hz9/yLxJNTb6cmewi97Lp88mt/jLc/GdVR74avzt2NJVoIITudveHupgJkm8Y1LCtfBMmcp+2R75vNiT9HqD40/t/N3sC/0Kcrf2LMwZ4OejcMjs3kLxaXThwxd775GKG60O2Tn5qjx8/6Y/vU1cp/ULVSBkan83MHIWSvp7Nufsgcsk/jGhZh5TPvCvJP88YFobrSxL83ZndSB7tbBsemzdfcLUZ1qmv3Os1WbltHu1vEtPCkBSE7nbj0wIxPufkleXg58LIaMBs3jFn9GqE60TFjtp/o4H62yHv5IxOzCNWF5A/jV9Y2dXQ/W6bmllLbgBAqLflbSmg8MCwAAAAAAJBZMCwAAAAAAJBZMCwAAAAAAJBZMCwAAAAAAJBZMCwAAAAAAJBZMCwAAAAAAJBZqjYsnZ09Zm7Ozf99fe/eQ7O1taVR7ezv75ubN+9qZMfKyqp5/LhdIzsmJ6dMX9+gRnb09g6Yp0+nNbLj0aM2s7q6ppEdN2/e8fvfls3NLXP/vpsfapudnTddXW7+W9+hoVEzMjKukR0dHd1mft7Nj1zdvdtscg5+J2J3d880Nd3TyI7l5RXT0tKhkR0TE09Nf/+QRnY8edJvpqZmNLLj4cNWs7a2rpEd16/f1iU7NjY2zYMHbn7teWZmznR392pkx+DgiBkbm9DIjvb2LrOwsKSRHXfuPDDb2zsa1c7Ozq65ffu+RnYsLi6btrZOjewYH580AwPDGtnR09NnpqdnNbKjubnFrK9vaGTHtWtNumSHtEfa5QLpJ+kvF8j3J9+jC1pbO83S0rJGdsh4393d1ah2tre3/XnoAjkvyPnBBaOjE/55ywVyHpXzqQvk/C7neVsODg7MjRt3NLJDroOSS7pArs9ynS5H1YZFknBXF+yhoRHvpG9/4djfP3BmDCRxlkHrAjlJzMy4OdnLyVASQheMjo47MYqC9LtMAltkHIg5cIGYMRmnLhBz7spkSBLu6oItJ1UXFw4xm66MwebmprMENZg7bk72cjJcXl7VyA4xr7lcTiM75CaEC+TiPzzsbu64ujEyNzfvzGSMj7ubO5IM7u3taVQ7UsfAgJu5I8mIqwR1cXHJv2njgqmpaf8mnguGh8ec3GQRKkluKkHaMzIyppEd0k+ubozI9yffowtkXLlIdgUZ7y7mjtwoc2Wq5bwg11YXLCws+uctF8h51NWNYTm/y3neBa6uO1tbOWc3c+X6XMnc4ZUwAAAAAADILBgWAAAAAADILBgWAAAAAADILBgWAAAAAADILBgWAAAAAADILBgWAAAAAADILBgWAAAAAADILBgWAAAAAADILBgWAAAAAADILBgWAAAAAADILBgWAAAAAADILBgWAAAAAADILBgWAAAAAADILBgWAAAAAADILBgWAAAAAADILBgWAAAAAADILBgWAAAAAADILFUblrt3H5rJySmN7Dh//opZX9/QqHb29vbMiRNnNbJjYWHRXL9+WyM7BgdHTEtLh0Z2PH7cboaGRjWy49q1JrO4uKSRHcePnzX7+/sa1c7a2rq5cOGqRnZMTDw19+491MiOrq4npqenTyM77tx5YKamZjSy4+zZy2Zzc0uj2tnZ2TXffHNeIzvm5hbMjRt3NLJjYGDYtLV1amTHw4etZmRkTCM7rly5aZaWljWy49ix0+bg4ECj2lldXTMXL17XyI7x8Unz4MFjjezo6Ogxvb0DGtnR1HTfTE/PamTHmTOXTC6X06h2tre3zenTFzSyY2Zmzty6dVcjO/r6Bk17e7dGdjQ3t5jR0QmN7Lh8+YZZWVnVyI6jR0/pkh3SHmmXC0ZHx/3+ckF7e5fp7x/UyI6bN++a2dk5jew4deqCN+53NKqdra2cPw9dIOcFOT+4QM5Xct5ygZxH5XzqgosXr/nneVvkeiPXHRfIdfDq1Vsa2SHX50eP2jQqTtWGRTpNTtQukKR5b88+2ZUvYX5+USM7dnd3zfLyikZ2yKRcX1/XyA5J6KU+F8jxyXG6YH5+wet/DSwQ07m46CYRlPHpYnILGxubnjHY1MgOuTi6ONkLMndcGEWZO2LSXSDmx93c2XJyM0OQueMiQRWWlmTu7Glkh8wdF8jccWWicjmXc2fDiakWZO7s7LiZOwsLWZw7O86Seelzd3NnzeHcWfbHqgvk5ogL3M6dnH+ucYF8f9mcO4v+uLdF5p/MQxe4njty3nKBnEflfOoCl3PH1XVHcki5Hrqg0rnDK2EAAAAAAJBZMCwAAAAAAJBZMCwAAAAAAJBZMCwAAAAAAJBZMCwAAAAAAJBZMCwAAAAAAJBZMCwAAAAAAJBZMCwAAAAAAJBZMCwAAAAAAJBZMCwAAAAAAJBZMCwAAAAAAJBZMCwAAAAAAJBZMCwAAAAAAJBZMCwAAAAAAJBZMCwAAAAAAJBZMCwAAAAAAJBZMCwAAAAAAJBZqjYsFy9eN8PDYxrZ8fnnx8zq6ppGtbO7u2vef/8zjeyYnp41J0+e08iOrq5e09R0XyM7bt26a3p6+jSy48SJs2Z2dk4jO95771Ozt7enUe2srKyaL788rpEdQ0Oj5vLlGxrZ0dzcYh4/btfIjgsXrprR0QmN7Pj00yNmfX1Do9rZ3t4xH3zwhUZ2PH06bU6duqCRHZ2dPebOnQca2XHjxh3T2zugkR3Hjp028/MLGtnxhz98bA4ODjSqnaWlZfP11yc1smNgYNhcvXpLIzsePHhsWls7NbLj3LnLZnx8UiM7Pvnka7O5uaVR7Wxt5cxHH32lkR0TE1PmzJlLGtnR3t5l7t17qJEd1641mf7+QY3sOHLklFlYWNLIjnff/VCX7JD2HD16SiM7+voG/f5ygXx/7e3dGtlx5sxFMzk5pZEdH330pcnlchrVzsbGpj8PXSDnhXPnrmhkh5yv5LzlgitXbprBwWGN7Pjqq5P+ed4Wud783d99rJEdc3ML5vjxMxrZIddnuU6XgycsAAAAAACQWTAsAAAAAACQWTAsAAAAAACQWTAsAAAAAACQWTAsAAAAAACQWTAsAAAAAACQUYz5/3yN4J6UmSn+AAAAAElFTkSuQmCC;" vertex="1" parent="1">
          <mxGeometry x="100" y="375" width="460" height="123.5" as="geometry" />
        </mxCell>
        <mxCell id="xVaTdNUlve_QaKW05wNs-10" value="" style="shape=image;imageAspect=0;aspect=fixed;verticalLabelPosition=bottom;verticalAlign=top;image=data:image/jpeg,/9j/4AAQSkZJRgABAQAAAQABAAD/2wCEAAkGBxIREBEQEBETERUVEQ8QFhAWFRUPFRAQFhUWFxURFRUYHSggGBolGxUVITEhJSkrLi4uGB8zODMsOCgtLisBCgoKDg0OGxAQGi8fICUtLS0tLS0tLS0tLSstLi0tLS0tLS0tLS0tLS0tLS0tLS0tLS0tLS0tLS0tLSsrLS0tLf/AABEIAOEA4QMBEQACEQEDEQH/xAAcAAEAAQUBAQAAAAAAAAAAAAAABQECAwQGBwj/xABQEAABAgMCCAkIAw4FBQEAAAABAAIDBBEFIQYSMUFRYXGRExQiUlOBkqHRBxUWMnKxssEjNEIzVGJjc4KToqPC0uHi8CU1Q3SUg7PT4/EX/8QAGwEBAAMBAQEBAAAAAAAAAAAAAAIDBAEFBgf/xAA4EQACAQIEAgcHBAICAwEAAAAAAQIDEQQSIVEFMRMUMkFxkaEiM1JhsdHhFTSB8FPBBkJDcvEj/9oADAMBAAIRAxEAPwD3FAEAQBAEAQBAEAQBAEBoWhbUtL/d5iDCOh72tJ2AmpUlFvkiLklzZAzPlIs1hIEdzyOZCikdTi0A71NUJ7EHWhuaL/KtIjIyYOsQ2fN4UuryOdPEywfKjZ5ymMz2oRPwkrnQTHTwJWSw4s6L6s3DbmpErAv/AOoAoulNdxJVYPvJ6FFa8BzHBwORwIcDsIVZYXoAgCAIAgCAIAgCAIAgCAIAgCAIAgCAIAgLIsVrGlz3BrWgkuJDQ0DKSTkCA8+wi8qcCESyTZxh2ThXVZCB1faf1UGgrRDDt9rQzyrpdnU89tfDKema8JMva3o4R4Bg1cm9w9olaI0ox5IolUlLmyGgSb33sY41vrS49eRWENDch2JGOUNbtd4VSxy5lFgROez9bwSwuWusGLmcw9ZHySwua8WyozfsE7CHdwvQ7cxyk3Gl3VhRIkB1xOI50InbSletRaT5nU7cjtbB8qU1CIbNNbMszuAEKKBpqOS7YQNqplQi+WhdGvJc9T1OwMIJedh8JLxA6lMZh5L4ZOZzcoz35DS4lZZQcXqaYzUloSiiSCAIAgCAIAgCAIAgCAIAgCAIAgCA15+chwIT40VwYxjS9zjmA951Z11Jt2RxtJXZ4PhlhjGtB5F8OADVkCuWmR8SnrOz0yDNnJ3U6ah4mKdRz8COs+xXxAHO5DdfrOGofMq2xU2dJIYPUbjw5eJEHSYjonfSg6kzRXNi0n3Fz3gZTTVn3KRExOmW6yljlyzjY0Fdyi440NBXLC5e2O056bblyzO3LokFrxRwDhrFVwkRM7YIN8I4p5pvB2HKEFyLkJ2NKRxFhOMKKw7xna4faabrv5KLSkrMkm07o98wPwjZaEsIzRivBxIkPLiRAM2lpyg6DpBWCpDI7G6nPOrk4oEwgCAIAgCAIAgCAIAgCAIAgCAIDzHy1Wm4Ml5VpoHl8Z+sMoGNOkVLjtaFpw8ebM2IfJHBYO2eIhMR4qGkADMXZanZdvWtGVnoGCdmtjzAEQVaxpiFp+1QgBp1VNepV1puMdCyjBSlqelAUuF2amheebzh/KRZDODbNNAa8Pax5F2O05HHSQQBXQdQWvC1HfKzJiaatmR59iraYhiodKYqAYqAq0kZDRcOm3Aj1uOXTpUWiSZoYQyYdD4QDlM72Zx1Zd6iSN3yS2mYNoNhV5Mwx0MjNjsBex3VR4/PVNeN432LqMrStue4rEbAgCAIAgCAIAgCAIAgCAIAgCAIDx7y1fW5f/bn4yteH5My4jmiHwWH0B/KO+Fq0ozM6PB+1hKzYiOriObwb6XkNJBxgM9CB1VUatPPCyJU55J3Z6hLzcOI3HY9rm5cYEEb15zi07M9BSTV0cLh9b0OK1stBcHgOD3vF7aitGA58tTsGtbMPSa9pmTEVU/ZRxVFqMhSiHRRAUogGKuArDHKG0e9GdRs2kPoYv5OJ8JVZMhMBT/iUn+WHuKjV7DLKfbR9ELzzcEAQBAEAQBAEAQBAEAQBAEAQBAeO+Wr63L/AO3P/ccteH5My4jmiLwUH0B/KO9zVoM5JRZbGNaqSZFoxmR1jcmY5lHE9fcmYZRxPX3JmO5SnE9fcmYZRxPX3LmYZTXfDoSFK5wtxUBdDbeNo964zqM9pj6CN+SifCVAkQOAv+ZSf5dvuKjV7DJ0+2j6IXnm8IAgCAIAgCAIAgCAIAgMceM1jXPe5rGtBc57iGtaBlJJuARK4vY4e1vKpJwnFsFkSZIrymgQ4dfadedobRXxw8nz0KHXiuWpDnywH7wH/I/9Sn1b5+hDrD29fwU//YXfeA/5J/8ACnVlv6fkdYe3r+DkMM8JzaMaHFMHgcSHweLj8LXlF1a4raZcitp08itcrnPO72Naybc4CGWcHj8ourjYuUAUpQ6FYVm56VnoP2n9KAelf4j9p/SgHpX+J/af0oB6Vfif2n9KAelX4n9p/SgJyzpnhYTIlMXGrya1pQkZepcBhjt5R2qSIssxV0FWC8bQuApa8wOCiNbfyHgn803LiRJshcBf8yk/y7fcVCr2GTp9tH0QvPN4QBAEAQBAEAQBAEAQFr3hoLnEAAEkm4ADKScyA8Hw8wwfPxSxhLZZjuQzJwpH+q8e4HINdVupU8i+ZiqVM7+RHWZg5EjND3EQ2m8EirnDSG6NqtKiT9EWdK7shAPRFnSv7IQD0SZ0ruyEBT0SZ0ruyFy50eiTOld2QlwPRJnSu7IS4KeiTOld2QlwPRJvSu7I8UuCnok3pXdkeKXBN2fJ8FDbDBxsWt9KVqSfmuAwR28o7VJEWYI0VrPWNNWc9Sklc43Yjos6XOAbyRUbTepZbEM1zLOfc4nsP9xUWTREYLzXBTkvFpjYkQOxa0rcbqrJjKvRUJzteyuaKEc1WK+Z636cu6BvbP8ACvk/11/B6/g9rqi3Hpy7oG9s/wAKfrr+D1/A6otyvpy7oG9s/wAKfrr+D1/Bzqi3NmVw4YTSJBczW1widZBAV1PjlN9uLXhr9iMsI+5nSSM9DjNx4Tw8asoOgjKDtXr0q1OrHNB3RmlBxdmjYVpEIAgCAIAgOB8r1uGDKtlWGj5gkO1QG0x+0S1usFyvoQvK+xRXlZW3PMcGLMEaLVwqxlHEZnO+y3ZcT1a1sMh3EV9EWoehgMwdAXbEblOHOgJY7ccYOgJYXHGDoC5YXMT59oyuaOtdynMxhda7NI3OXejY6RFvnpn9gp0bOdIihtpmg7k6NnekRabdbzSdw+adGznSIxPt45oY6yu9GOkNCPaMRxJri1zC7vyqSikQcmzUJUiJWH6w2j3rjOokJz7m/wBh/uKrZaiAsf7vC9sLz+J/tKn/AKs1YX30fE9AsqVEaMyG4kBxIqMoo0nPsX59RgpzUWfRTdlc6b0RhdJE/V8Fv6lDdlHTMeiMLpIn6vgnUobsdMzTncE3AEwn4/4Dhik7Dk9yqngtLxZKNbchpGciy0XGZVrmmjmnIRnY4KihXqYepmjo9vuWThGasz0yyrQbMQmxWZ7i3O1wytP96F9lh68a9NTj/wDDy5wcJWZuK8gEAQBAEB8/+US1eM2jHcDVsM8XZ7MOodveXnYQt9KOWCMNWWaTJ3BmS4KWZUcp/wBI787IOzRTIG1HNXbLlJEWYqIcMExMsZ6xv5ovO5SUWzjaRHRrVcfUAbrN58FNQ3K3PY0osdzvWcTqrduU0kiN2zGgKIChQBcOlEAKAouAFAXQvWbtHvXGdRvzf3N/sP8AcVWy1EBY/wB3he2F5/E/2lT/ANWasL76PiekYN/WoO13wOXwWE96j6Cp2Wd880FV61RuMboyx1Zj4U6lm6eRPKi9j6q6nVUtO8i42Oewvs0OZxho5TaB/wCEzIDtHu2LPjKN451zRZRnrY1MB7Q4OOYRPJii7VEaKg9YqNyt4NiHCr0b5S+v9/0cxULxzbHoC+oPPCAIAgNG3Z/i8rMR+jgxYgGlzWkgdZoFKKu0iMnZNnzjZssYsaHDJJx3tDjnIrVxrppUr0Tzz1B9wOpROkfGiNaMZxoNKsSuQbsQ05ajnXM5I0/aPgrYwtzKnO/IjipkAgKFAFw6UQFCgC4dKIAUBRcAKA2JOFU4xyDvKjJk4outePiwiM7uSOvL3KDJojLAgl0wzQ2rzsAoO8heRxqsqeDn89F/P4ubcDByrL5anpOCUHGmmnmNe7uxf3l8ZgY3q32PcrO0TuI2RenX7JmjzMCx2LSoXVo7o4ZosIPa5rsjmlp2EUW+ykvEqvZnmoLoMWv2ocT9ZjvELwYt0qt+9P6G12lHxPWoUQOa1wyOAcNhFQvu4yUkmjyGrOxeunAgCA5Hyqxyyy44Fxe6AzqMVpI3Aq2gvbRVWfsM8mwKhY02DzYcR/ub+8trMaOytacbCZfeSbm6fALsIuTOTkoo5SamXRDVx2DMNi0pJcjK23zMKkcC4dCAogM8OVcct23wUXIkomZsm3PU9yjmJZUXcWZo7z4rl2MqHFmaO8+KXYsinFWaO8+KZmdsgZVmjvPil2LIpxVmjvPiuXYsgJZnN7yl2LITEdsNtXGgzDOdQCiSRzk7NGK7GOwN0DxUSaR09hWfwUOrhy3UJ/BGZv8AelfCcax6xNbLB+zHl833v7fk9/BYfooXlzf9sekYHyGJCMVwviUpqhjJvvO5dwNHLDM+/wChKtK7sTUY5lOu7uxGJjoqbExRLAzQsi10dYlUuZweFEDEmomh2K8dYv7wV5GNjlqv5mqk7xO4wUj48nBOhpZ2CWjuAX1PDqmfDQfyt5aHn11aoyWW0qCAIDh/LCf8OH+4g+5yuodspr9k8wwPmBDjRHUqeBc0bS9mXct2W5jbsSNpxC6jnGpJKvgrGebuaBUyBRAFw6Va0k0CA3oEuG3m86dGxVt3LErGKctBkO4mp5oy9ehRbsSSuRMa2oh9UBo7R3nwUcxLKYPOcbnnc3wXLs7lRTznG553N8EuxlRXznG553N8EuxlRTzlG553N8EuxZDzlF553N8EuLIG0YvPO4eCXFkYWtfEdQYz3Ha4/wDxV1asKUc02kt2ThBydoq7OjsexeDIiRKF+UNyhmvWfcvkOKcb6ZOlQ0j3vvf2Xq/kexhcDkeepz22/J2WDtimO/GcCITTecmOeYPmvKwmFdV5pcvqbKtTKrLmd4aAaMwGTqXtSairmRamArG9XctFFywFEsDJBzrRQ70QkclhxDpFhO0sLey6v7y8/iSWaL+RfQejJjACJWXe3mxTuLW/Oq9fgsr0Gtn9jPi17a8Dp17BlCAIDjfK1CrZcQ82JLu3xA395XUO2U1+weP4PupGOtjh3g/Jb48zDPkTU8OSNquiUyNIqZAogC4dN+Vg4oqcp7hoVbZNI0bXtLE+jYeVndzdQ1qDZYlch5SVfFdisFTlJOQa3FZMVi6WGhnqu31fgaKVGdWWWCOhk8Hobb4hMQ6L2tG68718rif+RVpu1FKK839vT+T1aXDoLtu/ojd82QeiZuXn/q+N/wAj9DT1Sh8KHmuD0TNy5+rY3/Ix1Sj8KHmuD0TNyfq2N/yP0HVKPwoebIPRM3J+rY3/ACP0HVKPwoebIPRM3J+r43/I/QdUo/CiosyD0TOyCj4tjX/5GOqUfhRtykrXkQodfwWN+QWWU61eV5Nyfzuy5RhBWSSR09k4KOJDpjkjoweUfaIydV+xbqHDnzqeRTOv3ROthw2saGtAa0CgAuAGgL1bKK2Rn5sscarNNuTJpWLaKFjoolgKJYFBFAJAy+5cjXjGTiuYcG1c5fDT/ROuL+4sGM1s2X0jf8np5EcfhQz3HwXrcDfsTXzRnxfNHXL3TGEAQEHhxK8LZ04wCp4CI8DS5gx2je0KdN2miFRXgzwGyYmLGhnScXtCnzXormefLkdNMtqw71cuZS+RHFWFZRAZZVlXDVeot6ElzNi0Zrg4ZdnyN9o/3XqVTdi1K5zcpLujRAwZSSS430GdxWPFYmGGpOrPkvV7GilSdSahE7azLPxcWDBaSSaAZ3O0n+7l+fYjEVsZWzS1b5Lb5L+/Nn0VOnCjCy5HcWZgnDaAY54R3NBLWjVdeV6VHhsIq89X6FM67fLQl22PLj/Qhdhp9619WpfCvIq6SW5XzTL9BC7DfBOr0vhXkOkluU80y/QQuw3wXer0vhXkOkluPNMv0ELsN8Fzq9L4V5DpJbjzRL9BC7DfBOr0vhXkOkluVFky/QQuw3wXer0vhXkOklubMOG1oo0Bo0ABo7lZZRWxHmC9QdRLkSSLCVS7vmSRSijYCi7YGOJGaMp6hes9TEUqfN+ROMJM1Ys0TkuHevOrY2c9I6L1L40kuYlc/UmE5tioQGGbr4I1RDvxfAqWK7jlLvJPyfM+ijO0xGjc2v7y9rga/wDyk/n/AKM2LftI6xe2ZAgCAtewEEEVBBBGkHKEB8yz0qZePEgnLCivh1OcscQD10qvSTurnnNW0OqY4OaCMjgD1EK+5QyNcKGmi5WFRaug3JAXE7Aq5E4kZhFE5TGaAXbzT5KqRdE3sFpcBjomdzsUeyP5k7gvj/8AkmIbqQorkld+L0Xp9T2uG07Rc99D0zAeQGK+OReSWN1NHrEbTd1LLwujaLqPv0RpxE9cp07yvQnJrRFCRYq9SQTUBNQWveBlNNpUJ1FBXlK38nVFvkjC6daM5Oz+ayT4hSjybfh+bFioyZidP6G96zy4ptH1JrD/ADLDPHQO9VviU/hRLoFuOPO0Dv8AFc/Uqmy9fuOgiUM67Q3cfFRfEauy9fud6CJaZt+mnUFCWOrPvt/B1UomN0QnKSVROrOfak2TUUuSLFWdCA25YXbV6OFjaF9yio9TkcKo2NMEcxrW9frH39ypxMrzsTprQ67AqXxJRp57nv78UdzQvp+E08mGT3uzBiXeoTy9IoCAIAgPEfK3ZPAz/DAciYYH1zcKwBjxuxD+cVtoSvG2xjrRtK+5F2DM40PEOVne05PDctUWZZLU2JuAa4wFdI+asiyuSNMqRA3ZH1Tt+QUJFkSGwg+6j2G+8qqXMtjyJvBz6u32n+9fCcf/AHj8EfQcP9wvFnrOCraScHY873uW7Axth4/3vI1n7bJJwvVklqRRSijYGGPMNZlN+gZVmr4qlR0k9dlzLIU5S5GjFnXHJyRqy715FbiNWekfZXr5mmNCK56msTpWFtt3ZdYLgCAIAgCAIBVAKoCoFbl1K7sjhuPeGNLjcGtJJ1AXr2ElGNtjNzZ5+8ujRbr3RH3D8JxuHevOSdSdlzbL9Io9XlIAhw2Q25GNawbAKL7qnBQgoLuVjyJO7uZlM4EAQBAc9hzg6J+UdCFBEaeFhONwEQA8knQ4EjrBzKynPJK5XUhmjY8DY6JAimoLHscWuY4UIINHMcFvT70YWu5nQylpw4g9YNPNcabjnVikipxaNvHGkb104UxxpG9Dpz1vn6Uew33lQlzJx5E5g59Xb7T/AHr4Pj/7x+CPoOH+4Xiz1zBf6nB9l3xuXpYH9vDw/wBkK3bZIRCBUk0GlTqSjBOUnZEYpvREZMz5NzLhpznwXgYricp+zS0W/f8Aj6+Bsp0EtZGlVeUaRQrtnsc0FDoSz2GhWmpLPYaCmpLPYaCmpLPYaCmpLPYaCiWew0FEswUSzAXAbEvDNanqW3DUXfNJFVSXciMwqncWGIQN78upgy7zdvV+InaNtyMFd3NPAmQ4SY4QjkwhjbXmoaPeeoLRwfD562d8o/UhiZ2jbc9CX1R5wQBAEAQBAcjhpgJBn/pWHgY9AOEAq2IBkbEbn0BwvGsCitp1XDTuKqlJS17zyq1MB7QlyQ6WfEA+3B+nDtYDeUOtoWpVYPvMzpzXcRfmWa+9Zj9BF/hU80d0Qs9n5MeZpn71mP0EX+FM0d0LPZ+Q8zTX3rMfoIv8KZo7oWez8jpLDgPhwQ2Ix0Nwc6rXtLHCpuqDevhuPtPGO2yPewCtRXiz1bBl4bJQSdD+vluXoYSpGnhYyl/dWV1It1GkYJ2YL3GuQG4f3nXzmPxU61Rp8lyX97zdRpqMdDXWItKtyjaFKHaQfI3y6l5u16F7JlMXG4fSM7TfFczLcWK8ah9IztDxTMtxYcaZz2doJmW4sOMs57e0EzLcWHGWc9vaCXQsOMs57e0F24sV4yznt7QS4sOMM57e0EuLDjDOe3tBLnDSnragwgeUHuzNaQb9ZFwVc6sYklFs5CPGiR4tSMZ7yAGjcGgLH7VWdlq2W6RR6TYFmCWgNh5XHlPOl5y9QuHUvscFhlh6Sh39/ieXVqZ5XJJaysIAgCAIAgCAIAgCAIDzfDP65E2Q/gC+S4v+5fgj0sN7tE7YDqysLUH/ABuUac26cU+4NasrH9Y7V5df3jNMOyixVEirco2hSh2kcfI2p4EwogAqTDiAAXknFNwXsS7LMq5nC8Qi9DE7DvBefklsX3Q4hF6GJ2HeCZJbC6HEIvQxOw7wTJLYXQ4hF6GJ2HeCZJbC6HEIvQxOw7wTJLYXRa+TiNBLob2gZSWOAHWQjhJdwuiyDBc84rGueTka0FxPUEhCU3aKu/kG0tWbPmmY+9436J/gruqYj4JeTIdJDdeY80zH3vG/RP8ABOqYj4JeTHSQ3XmbUpg3NRCKQiwc5/0YHUb+5X0uGYmp/wBbeOn5Iyr04952dgYOMluWTwkSlMelA0Zw0fP3ZF9BguHQw3tc5b/YxVa7npyRNr0SgIAgCAIAgCAIAgKEoDG+OAgNeJPAIDz/AAqiY0092qH8IXyXF/3L8F9D0sN7tE/g/wDVoWx/xuVdHsIlLmXx/WO1ebX94zRDsoxqkkVabxtClF+0jj5G/wAK3SN69bpqfxLzM2WWw4Vukb06an8S8xkew4VvOG9Omp/EvMZHsOFbzhvTpqfxLzGR7DhW84b06an8S8xkewEQaRvXVVg3ZNDK9jSt/wCrRdjfiCVOwzkeZAYIvxZuGdUT4CpcI/dLwf0OYn3bPRWTAK+uPNMoKAqgCAIAgCAIAgCAIChKAwRZiiA0Y84gI+PO60BHxp7WgOctOJjRSdTfcvkuL/un4L6HpYb3aOrwe+rQvz/jcqqPYRKXMumPWK83Ee8Zoh2UY1SSCAIAgCA2JKWMR2KLs5OgLXgsHPFVMkdN3siurVVON2S/meHSlXV01Hgvpf0HDZbXd97/AIt6GDrlS/cRkeUMKI0G8G8HSPFeDXwU8JiIxlqnye/5RshVVSDaNa3vq0XY34gr6nYZCPM5axYmLGadTvcVPhH7pfz9COJ92zroE7rX1x5pIQJxAb8GZqgNgGqAqgCAIAgCAIAUBqTEVARsxGQEZMR0BGzEdARkxMIDRc+pqvleNQaxGbdL7Ho4V3hY67BiOHQA3OxzgRqJLge87lloP2SyXM3JqGa42b3LJiqTUs65FtOWljXqsZaEAQFUAQEtg+8VeM9GnaBXx719H/x6cc1SPfo/4V/pf1MGOTtFk0vqDzyPtYA4mkEn5LxuLKMsl+au/wDRqw11c5vCaYDYBZneQANQIJPcB1rxa0rRNcVqcrKOo6q08Gg5YjNsn9ivFO0LEzLzC+qPOJOXjoCSl4yAk5eMgNwFAVQBAEAQBAWvyICPmEBFzCAi5hARkwgIuYQGk2LiuvyHu1rzuJYR4il7PaXL/aL6FTJLXkyUs6edBfjtvzFuZw0fzXycJuDPRaudjIWhDjCrDfnYbnDaPmtkZqS0K2rGV8Bp1bFTPDU5fLwJqo0YXSpzEHuWaWDkuTuWKqu8sMB2hVPD1V3Es8dynBO5pUegqbDPHcuEB2jvU1hqr7jjqRM0CC5pDg6hGj+a1UMPUpTU1KzW35+xXOakrNXJMWg6mQbV7v6nVtayuY+rxIa1LaZDrjOx38wZevmhebWxF5OUndl8YWVkcfPTjory951AZmjQFhblUkW6JGGCb19bw7B9Xpa9p8/t/B5ternlpyJKXXoFJKS6AlJdAScugJKFkQF6AIAgCAIAUBqTEJARkxBQEbMQEBGTEBARsxLoCNjyyAww3FlxvHeF5WO4XGv7cNJej/u5po4hw0eqNmFEyFpoRnFxHgvmq1CrQlaat/dzdGcZrRkrK2/GZcSIg/CF+8fOq5GvJc9TuVEnBwmYfXhubsIePkrVXXeRym0y3pc/bI2td8gp9LDc5lZebal+lG53gu9JHcWZiiYQQBkc52xpHvooutAZWaUfCcfYh9bjTuHioPELuRLKRk1bEaJcX4o5reSN+XvVUqsmdUURxNFdh8FWr9habvl/fAjOrGHNlWsLti+lwXDqeH9p6y328DBVruenJG7Ly69EoJKXgICSl4CAk5eCgJOXhIDcAQFUAQBAEAQBAUIQGCLL1QGhHk0BHx5LUgI+NI6kBoxpDUgNKLZ+pAaj7OUZRUlaSujqbWqLDLOGtedV4Thp6pZfD7F8cTNfMpwTtC8+pwOX/SafirfcuWLXeimIdCzS4NiVys/5+5YsVTGIdCj+kYr4fVHes09yvBHQrI8FxD5tL+fwReKgXCA7QtdPga/7z8l/foVSxeyMjZNxXo0eG4alqo3fz1/BTKvOXebEKz9S3FJuwZDUgN6DI6kBvwJLUgJCBJoDfgy1EBsgUQFUAQBAEAQBAEAQBAUIQGJ8uCgNeJIgoDViWbqQGrEs3UgNd9makBgdZepAYnWXqQFpsrUgAsrUgLhZWpAZG2XqQGdlmakBsQ7M1IDah2bqQG1DkKIDYZLAIDMGgICqAIAgCAIAgCAIAgCAIAgCAIAgKEIChhjQgLTAboQFvFm6EBTirdCAcVboQFeLN0IC4QG6EBUQxoQFwCAqgCAIAgCAIAgCAIAgCAIAgCAIAgCAIAgCAIAgCAIAgCAIAgCAIAgCAIAgCAIAgCAID//Z;" vertex="1" parent="1">
          <mxGeometry x="490" y="375" width="50" height="50" as="geometry" />
        </mxCell>
        <mxCell id="xVaTdNUlve_QaKW05wNs-14" value="" style="endArrow=none;dashed=1;html=1;dashPattern=1 3;strokeWidth=2;rounded=0;" edge="1" parent="1">
          <mxGeometry width="50" height="50" relative="1" as="geometry">
            <mxPoint x="-40" y="720" as="sourcePoint" />
            <mxPoint x="-40" y="120" as="targetPoint" />
          </mxGeometry>
        </mxCell>
        <mxCell id="xVaTdNUlve_QaKW05wNs-15" value="" style="endArrow=none;dashed=1;html=1;dashPattern=1 3;strokeWidth=2;rounded=0;" edge="1" parent="1">
          <mxGeometry width="50" height="50" relative="1" as="geometry">
            <mxPoint x="640" y="120" as="sourcePoint" />
            <mxPoint x="-40" y="120" as="targetPoint" />
          </mxGeometry>
        </mxCell>
        <mxCell id="xVaTdNUlve_QaKW05wNs-17" value="" style="endArrow=none;dashed=1;html=1;dashPattern=1 3;strokeWidth=2;rounded=0;" edge="1" parent="1">
          <mxGeometry width="50" height="50" relative="1" as="geometry">
            <mxPoint x="-40" y="720" as="sourcePoint" />
            <mxPoint x="640" y="720" as="targetPoint" />
          </mxGeometry>
        </mxCell>
        <mxCell id="xVaTdNUlve_QaKW05wNs-18" value="" style="endArrow=none;dashed=1;html=1;dashPattern=1 3;strokeWidth=2;rounded=0;" edge="1" parent="1">
          <mxGeometry width="50" height="50" relative="1" as="geometry">
            <mxPoint x="640" y="720" as="sourcePoint" />
            <mxPoint x="640" y="130" as="targetPoint" />
          </mxGeometry>
        </mxCell>
        <mxCell id="xVaTdNUlve_QaKW05wNs-19" value="" style="endArrow=none;dashed=1;html=1;dashPattern=1 3;strokeWidth=2;rounded=0;" edge="1" parent="1">
          <mxGeometry width="50" height="50" relative="1" as="geometry">
            <mxPoint x="40" y="680" as="sourcePoint" />
            <mxPoint x="40" y="280" as="targetPoint" />
          </mxGeometry>
        </mxCell>
        <mxCell id="xVaTdNUlve_QaKW05wNs-20" value="" style="endArrow=none;dashed=1;html=1;dashPattern=1 3;strokeWidth=2;rounded=0;" edge="1" parent="1">
          <mxGeometry width="50" height="50" relative="1" as="geometry">
            <mxPoint x="40" y="680" as="sourcePoint" />
            <mxPoint x="600" y="680" as="targetPoint" />
          </mxGeometry>
        </mxCell>
        <mxCell id="xVaTdNUlve_QaKW05wNs-21" value="" style="endArrow=none;dashed=1;html=1;dashPattern=1 3;strokeWidth=2;rounded=0;" edge="1" parent="1">
          <mxGeometry width="50" height="50" relative="1" as="geometry">
            <mxPoint x="600" y="680" as="sourcePoint" />
            <mxPoint x="600" y="280" as="targetPoint" />
          </mxGeometry>
        </mxCell>
        <mxCell id="xVaTdNUlve_QaKW05wNs-22" value="" style="endArrow=none;dashed=1;html=1;dashPattern=1 3;strokeWidth=2;rounded=0;" edge="1" parent="1">
          <mxGeometry width="50" height="50" relative="1" as="geometry">
            <mxPoint x="600" y="280" as="sourcePoint" />
            <mxPoint x="40" y="280" as="targetPoint" />
          </mxGeometry>
        </mxCell>
        <mxCell id="xVaTdNUlve_QaKW05wNs-23" value="" style="endArrow=none;dashed=1;html=1;dashPattern=1 3;strokeWidth=2;rounded=0;entryX=0;entryY=0;entryDx=0;entryDy=0;exitX=0;exitY=1;exitDx=0;exitDy=0;" edge="1" parent="1" source="xVaTdNUlve_QaKW05wNs-9" target="xVaTdNUlve_QaKW05wNs-9">
          <mxGeometry width="50" height="50" relative="1" as="geometry">
            <mxPoint x="80" y="450" as="sourcePoint" />
            <mxPoint x="130" y="400" as="targetPoint" />
          </mxGeometry>
        </mxCell>
        <mxCell id="xVaTdNUlve_QaKW05wNs-24" value="" style="endArrow=none;dashed=1;html=1;dashPattern=1 3;strokeWidth=2;rounded=0;" edge="1" parent="1">
          <mxGeometry width="50" height="50" relative="1" as="geometry">
            <mxPoint x="100" y="370" as="sourcePoint" />
            <mxPoint x="100" y="370" as="targetPoint" />
          </mxGeometry>
        </mxCell>
        <mxCell id="xVaTdNUlve_QaKW05wNs-25" value="" style="endArrow=none;dashed=1;html=1;dashPattern=1 3;strokeWidth=2;rounded=0;entryX=0.997;entryY=-0.028;entryDx=0;entryDy=0;entryPerimeter=0;exitX=1;exitY=1;exitDx=0;exitDy=0;" edge="1" parent="1" source="xVaTdNUlve_QaKW05wNs-9" target="xVaTdNUlve_QaKW05wNs-9">
          <mxGeometry width="50" height="50" relative="1" as="geometry">
            <mxPoint x="550" y="500" as="sourcePoint" />
            <mxPoint x="50" y="250" as="targetPoint" />
          </mxGeometry>
        </mxCell>
        <mxCell id="xVaTdNUlve_QaKW05wNs-26" value="" style="endArrow=none;dashed=1;html=1;dashPattern=1 3;strokeWidth=2;rounded=0;" edge="1" parent="1">
          <mxGeometry width="50" height="50" relative="1" as="geometry">
            <mxPoint x="100" y="500" as="sourcePoint" />
            <mxPoint x="560" y="500" as="targetPoint" />
          </mxGeometry>
        </mxCell>
        <mxCell id="xVaTdNUlve_QaKW05wNs-27" value="&lt;span style=&quot;font-size: 18px;&quot;&gt;API&lt;/span&gt;" style="text;strokeColor=none;align=center;fillColor=none;html=1;verticalAlign=middle;whiteSpace=wrap;rounded=0;" vertex="1" parent="1">
          <mxGeometry x="-230" y="468.5" width="60" height="30" as="geometry" />
        </mxCell>
        <mxCell id="xVaTdNUlve_QaKW05wNs-28" value="&lt;span style=&quot;font-size: 18px;&quot;&gt;EC2&lt;/span&gt;&lt;span style=&quot;color: rgba(0, 0, 0, 0); font-family: monospace; font-size: 0px; text-align: start; text-wrap-mode: nowrap;&quot;&gt;%&lt;/span&gt;&lt;span style=&quot;color: rgba(0, 0, 0, 0); font-family: monospace; font-size: 0px; text-align: start; text-wrap-mode: nowrap;&quot;&gt;3CmxGraphModel%3E%3Croot%3E%3CmxCell%20id%3D%220%22%2F%3E%3CmxCell%20id%3D%221%22%20parent%3D%220%22%2F%3E%3CmxCell%20id%3D%222%22%20style%3D%22edgeStyle%3DorthogonalEdgeStyle%3Brounded%3D0%3BorthogonalLoop%3D1%3BjettySize%3Dauto%3Bhtml%3D1%3BexitX%3D0.75%3BexitY%3D1%3BexitDx%3D0%3BexitDy%3D0%3B%22%20edge%3D%221%22%20parent%3D%221%22%3E%3CmxGeometry%20relative%3D%221%22%20as%3D%22geometry%22%3E%3CmxPoint%20x%3D%22110%22%20y%3D%22230%22%20as%3D%22targetPoint%22%2F%3E%3CmxPoint%20x%3D%22-155%22%20y%3D%22520%22%20as%3D%22sourcePoint%22%2F%3E%3C%2FmxGeometry%3E%3C%2FmxCell%3E%3C%2Froot%3E%3C%2FmxGraphModel%3E&lt;/span&gt;&lt;span style=&quot;color: rgba(0, 0, 0, 0); font-family: monospace; font-size: 0px; text-align: start; text-wrap-mode: nowrap;&quot;&gt;%3CmxGraphModel%3E%3Croot%3E%3CmxCell%20id%3D%220%22%2F%3E%3CmxCell%20id%3D%221%22%20parent%3D%220%22%2F%3E%3CmxCell%20id%3D%222%22%20style%3D%22edgeStyle%3DorthogonalEdgeStyle%3Brounded%3D0%3BorthogonalLoop%3D1%3BjettySize%3Dauto%3Bhtml%3D1%3BexitX%3D0.75%3BexitY%3D1%3BexitDx%3D0%3BexitDy%3D0%3B%22%20edge%3D%221%22%20parent%3D%221%22%3E%3CmxGeometry%20relative%3D%221%22%20as%3D%22geometry%22%3E%3CmxPoint%20x%3D%22110%22%20y%3D%22230%22%20as%3D%22targetPoint%22%2F%3E%3CmxPoint%20x%3D%22-155%22%20y%3D%22520%22%20as%3D%22sourcePoint%22%2F%3E%3C%2FmxGeometry%3E%3C%2FmxCell%3E%3C%2Froot%3E%3C%2FmxGraphModel%3E&lt;/span&gt;" style="text;strokeColor=none;align=center;fillColor=none;html=1;verticalAlign=middle;whiteSpace=wrap;rounded=0;" vertex="1" parent="1">
          <mxGeometry x="-20" y="255" width="60" height="30" as="geometry" />
        </mxCell>
        <mxCell id="xVaTdNUlve_QaKW05wNs-32" value="" style="endArrow=none;dashed=1;html=1;dashPattern=1 3;strokeWidth=2;rounded=0;" edge="1" parent="1">
          <mxGeometry width="50" height="50" relative="1" as="geometry">
            <mxPoint x="560" y="370" as="sourcePoint" />
            <mxPoint x="100" y="370" as="targetPoint" />
          </mxGeometry>
        </mxCell>
        <mxCell id="xVaTdNUlve_QaKW05wNs-31" value="&lt;span style=&quot;font-size: 18px;&quot;&gt;AirFlow&lt;/span&gt;" style="text;strokeColor=none;align=center;fillColor=none;html=1;verticalAlign=middle;whiteSpace=wrap;rounded=0;" vertex="1" parent="1">
          <mxGeometry x="47.5" y="350" width="82.5" height="20" as="geometry" />
        </mxCell>
        <mxCell id="xVaTdNUlve_QaKW05wNs-34" value="ETL" style="text;strokeColor=none;align=center;fillColor=none;html=1;verticalAlign=middle;whiteSpace=wrap;rounded=0;" vertex="1" parent="1">
          <mxGeometry x="120" y="380" width="60" height="30" as="geometry" />
        </mxCell>
        <mxCell id="xVaTdNUlve_QaKW05wNs-35" value="&lt;font style=&quot;font-size: 12px;&quot;&gt;ACCESS&lt;/font&gt;" style="text;strokeColor=none;align=center;fillColor=none;html=1;verticalAlign=middle;whiteSpace=wrap;rounded=0;rotation=90;" vertex="1" parent="1">
          <mxGeometry x="480" y="498.5" width="30" height="20" as="geometry" />
        </mxCell>
        <mxCell id="xVaTdNUlve_QaKW05wNs-36" value="&lt;font style=&quot;font-size: 24px;&quot;&gt;Load&lt;/font&gt;" style="text;strokeColor=none;align=center;fillColor=none;html=1;verticalAlign=middle;whiteSpace=wrap;rounded=0;" vertex="1" parent="1">
          <mxGeometry x="270" y="570" width="70" height="20" as="geometry" />
        </mxCell>
        <mxCell id="xVaTdNUlve_QaKW05wNs-37" value="" style="endArrow=classic;html=1;rounded=0;exitX=-0.022;exitY=0.594;exitDx=0;exitDy=0;exitPerimeter=0;entryX=1.025;entryY=0.592;entryDx=0;entryDy=0;entryPerimeter=0;" edge="1" parent="1" source="xVaTdNUlve_QaKW05wNs-8" target="xVaTdNUlve_QaKW05wNs-7">
          <mxGeometry width="50" height="50" relative="1" as="geometry">
            <mxPoint x="380" y="550" as="sourcePoint" />
            <mxPoint x="430" y="500" as="targetPoint" />
          </mxGeometry>
        </mxCell>
        <mxCell id="xVaTdNUlve_QaKW05wNs-40" value="" style="endArrow=classic;html=1;rounded=0;entryX=0.5;entryY=0;entryDx=0;entryDy=0;exitX=0.826;exitY=0.769;exitDx=0;exitDy=0;exitPerimeter=0;" edge="1" parent="1" source="xVaTdNUlve_QaKW05wNs-9" target="xVaTdNUlve_QaKW05wNs-8">
          <mxGeometry width="50" height="50" relative="1" as="geometry">
            <mxPoint x="406" y="643" as="sourcePoint" />
            <mxPoint x="245" y="642" as="targetPoint" />
          </mxGeometry>
        </mxCell>
        <mxCell id="xVaTdNUlve_QaKW05wNs-42" value="" style="endArrow=classic;html=1;rounded=0;" edge="1" parent="1">
          <mxGeometry width="50" height="50" relative="1" as="geometry">
            <mxPoint x="-80" y="440" as="sourcePoint" />
            <mxPoint x="140" y="440" as="targetPoint" />
          </mxGeometry>
        </mxCell>
      </root>
    </mxGraphModel>
  </diagram>
</mxfile>
